<svg width="103" height="91" viewBox="0 0 103 91" fill="none" xmlns="http://www.w3.org/2000/svg">
<g filter="url(#filter0_i_415_2326)">
<path d="M18.8849 81.25V10.27L0.554923 17.03V6.5L17.5849 -6.19888e-06H29.9349V81.25H44.1049V91H1.85492V81.25H18.8849ZM102.74 68.9C102.74 76.0933 100.747 81.5967 96.76 85.41C92.86 89.1367 87.5733 91 80.9 91H78.3C71.6267 91 66.2967 89.1367 62.31 85.41C58.41 81.5967 56.46 76.0933 56.46 68.9V22.1C56.46 14.82 58.41 9.31666 62.31 5.59C66.21 1.86333 71.54 -6.19888e-06 78.3 -6.19888e-06H80.9C87.66 -6.19888e-06 92.99 1.86333 96.89 5.59C100.79 9.31666 102.74 14.82 102.74 22.1V68.9ZM91.69 19.63C91.69 16.9433 90.65 14.6467 88.57 12.74C86.5767 10.7467 84.02 9.75 80.9 9.75H78.3C75.18 9.75 72.58 10.7467 70.5 12.74C68.5067 14.6467 67.51 16.9433 67.51 19.63V54.86L91.69 19.63ZM67.51 71.37C67.51 74.0567 68.5067 76.3967 70.5 78.39C72.58 80.2967 75.18 81.25 78.3 81.25H80.9C84.02 81.25 86.5767 80.2967 88.57 78.39C90.65 76.3967 91.69 74.0567 91.69 71.37V36.27L67.51 71.37Z" fill="white" fill-opacity="0.85"/>
</g>
<defs>
<filter id="filter0_i_415_2326" x="0.554932" y="0" width="102.185" height="91" filterUnits="userSpaceOnUse" color-interpolation-filters="sRGB">
<feFlood flood-opacity="0" result="BackgroundImageFix"/>
<feBlend mode="normal" in="SourceGraphic" in2="BackgroundImageFix" result="shape"/>
<feColorMatrix in="SourceAlpha" type="matrix" values="0 0 0 0 0 0 0 0 0 0 0 0 0 0 0 0 0 0 127 0" result="hardAlpha"/>
<feOffset/>
<feGaussianBlur stdDeviation="2.16531"/>
<feComposite in2="hardAlpha" operator="arithmetic" k2="-1" k3="1"/>
<feColorMatrix type="matrix" values="0 0 0 0 0 0 0 0 0 0 0 0 0 0 0 0 0 0 0.39 0"/>
<feBlend mode="normal" in2="shape" result="effect1_innerShadow_415_2326"/>
</filter>
</defs>
</svg>
