<svg width="39" height="91" viewBox="0 0 39 91" fill="none" xmlns="http://www.w3.org/2000/svg">
<g filter="url(#filter0_i_415_2157)">
<path d="M38.8675 70.46C38.8675 77.6533 37.1341 82.8967 33.6675 86.19C30.2008 89.3967 24.5675 91 16.7675 91H0.127462V81.25H17.9375C21.2308 81.25 23.6575 80.5133 25.2175 79.04C26.7775 77.48 27.5575 75.0533 27.5575 71.76V58.37C27.5575 55.51 26.6908 53.2567 24.9575 51.61C23.2241 49.8767 20.9275 49.01 18.0675 49.01H4.15746V39.26H16.7675C19.4541 39.26 21.7075 38.3933 23.5275 36.66C25.3475 34.9267 26.2575 32.63 26.2575 29.77V19.11C26.2575 15.8167 25.4775 13.4333 23.9175 11.96C22.4441 10.4867 20.0608 9.75 16.7675 9.75H0.127462V-6.19888e-06H15.2075C22.5741 -6.19888e-06 28.1208 1.64666 31.8475 4.93999C35.6608 8.14666 37.5675 13.26 37.5675 20.28V28.47C37.5675 35.1433 35.1841 40.17 30.4175 43.55C36.0508 46.67 38.8675 52 38.8675 59.54V70.46Z" fill="white" fill-opacity="0.85"/>
</g>
<defs>
<filter id="filter0_i_415_2157" x="0.127441" y="0" width="38.74" height="91" filterUnits="userSpaceOnUse" color-interpolation-filters="sRGB">
<feFlood flood-opacity="0" result="BackgroundImageFix"/>
<feBlend mode="normal" in="SourceGraphic" in2="BackgroundImageFix" result="shape"/>
<feColorMatrix in="SourceAlpha" type="matrix" values="0 0 0 0 0 0 0 0 0 0 0 0 0 0 0 0 0 0 127 0" result="hardAlpha"/>
<feOffset/>
<feGaussianBlur stdDeviation="2.16531"/>
<feComposite in2="hardAlpha" operator="arithmetic" k2="-1" k3="1"/>
<feColorMatrix type="matrix" values="0 0 0 0 0 0 0 0 0 0 0 0 0 0 0 0 0 0 0.39 0"/>
<feBlend mode="normal" in2="shape" result="effect1_innerShadow_415_2157"/>
</filter>
</defs>
</svg>
