<svg width="449" height="184" viewBox="0 0 449 184" fill="none" xmlns="http://www.w3.org/2000/svg">
<path d="M87.6 23C88.6667 20.2 90.5333 17.6667 93.2 15.4C96 13.1333 98.9333 12 102 12C105.067 12 107.933 13.1333 110.6 15.4C113.4 17.6667 115.333 20.2 116.4 23C114.4 20.7333 112.067 19.1333 109.4 18.2C106.867 17.2667 104.4 16.8 102 16.8C99.6 16.8 97.0667 17.2667 94.4 18.2C91.8667 19.1333 89.6 20.7333 87.6 23ZM134 12.8C139.467 14.2667 143.933 17.4 147.4 22.2C151 27 153.067 32.2 153.6 37.8C154.133 43.2667 153.133 48.7333 150.6 54.2C148.2 59.5333 144.467 63.4667 139.4 66C143.267 62 146.4 57.4667 148.8 52.4C151.2 47.2 152.133 42.4 151.6 38C151.2 33.4667 149.333 28.9333 146 24.4C142.667 19.8667 138.667 16 134 12.8ZM33.6 55.2C31.2 51.4667 30.2667 47.2667 30.8 42.6C31.3333 37.8 32.9333 33.6667 35.6 30.2C38.2667 26.6 41.8 24 46.2 22.4C50.7333 20.6667 55.0667 20.4 59.2 21.6C54.8 21.8667 50.5333 22.8667 46.4 24.6C42.4 26.3333 39.3333 28.6 37.2 31.4C35.0667 34.2 33.6667 37.8 33 42.2C32.4667 46.6 32.6667 50.9333 33.6 55.2ZM59 46.8C57.5333 43.3333 57.1333 39.5333 57.8 35.4C58.6 31.2667 60.3333 27.9333 63 25.4C65.6667 23 69.0667 21.6 73.2 21.2C77.4667 20.8 81.2 21.4 84.4 23C80.8 22.6 77.4 23 74.2 24.2C71 25.4 68.3333 27 66.2 29C64.0667 31 62.2667 33.5333 60.8 36.6C59.3333 39.6667 58.7333 43.0667 59 46.8ZM119.6 23C121.867 23.2667 124.133 24.2 126.4 25.8C128.667 27.2667 130.067 29.1333 130.6 31.4C131 33.5333 130.533 35.8 129.2 38.2C127.867 40.6 126.267 42.4 124.4 43.6C125.733 41.8667 126.4 40 126.4 38C126.4 36 126.2 34.1333 125.8 32.4C125.4 30.6667 124.733 28.9333 123.8 27.2C123 25.4667 121.6 24.0667 119.6 23ZM124.4 46.8C128 48.1333 131.133 50.6 133.8 54.2C136.467 57.6667 137.8 61.2667 137.8 65C137.8 68.8667 136.467 72.6 133.8 76.2C131.133 79.6667 128 82.0667 124.4 83.4C127.333 80.8667 129.467 77.9333 130.8 74.6C132.267 71.2667 133 68.0667 133 65C133 61.9333 132.267 58.8 130.8 55.6C129.467 52.2667 127.333 49.3333 124.4 46.8ZM37.6 74.6C35.8667 71.8 34.9333 68.4667 34.8 64.6C34.8 60.6 35.8 57.2667 37.8 54.6C39.8 51.9333 42.6667 50.1333 46.4 49.2C50.2667 48.2667 53.8 48.2667 57 49.2C53.6667 49.3333 50.6667 50.2667 48 52C45.3333 53.6 43.2 55.4667 41.6 57.6C40 59.7333 38.7333 62.2667 37.8 65.2C37 68.1333 36.9333 71.2667 37.6 74.6ZM139.4 66C142.2 65.2 145 65.4 147.8 66.6C150.733 67.6667 153 69.4 154.6 71.8C156.2 74.0667 157.067 76.8 157.2 80C157.333 83.0667 156.533 85.7333 154.8 88C156.4 82.1333 155.8 77.1333 153 73C150.067 68.8667 145.533 66.5333 139.4 66ZM17.4 101.6C15.6667 98.9333 14.7333 95.7333 14.6 92C14.4667 88.2667 15.3333 85.0667 17.2 82.4C19.2 79.8667 22 78.1333 25.6 77.2C29.3333 76.1333 32.7333 76.0667 35.8 77C32.6 77.2667 29.7333 78.2 27.2 79.8C24.6667 81.4 22.6667 83.2 21.2 85.2C19.6 87.3333 18.3333 89.8667 17.4 92.8C16.6 95.6 16.6 98.5333 17.4 101.6ZM56.2 102.2V102C55.5333 101.867 54.8667 101.733 54.2 101.6C55 101.467 55.7333 101.333 56.4 101.2C57.0667 98.5333 58.4667 96 60.6 93.6C62.8667 91.0667 65.4 89.6 68.2 89.2C68.7333 89.0667 69.2667 89 69.8 89C70.3333 87.5333 70.6667 86 70.8 84.4C71.0667 82.8 71 81.1333 70.6 79.4C70.8667 79.9333 71.1333 80.4 71.4 80.8C71.5333 79.3333 71.8667 78 72.4 76.8C72.2667 78.5333 72.6667 79.9333 73.6 81C74.5333 82.0667 75.4667 83.0667 76.4 84C77.3333 84.9333 78.4 85.8667 79.6 86.8C80.8 87.7333 82.2 88.0667 83.8 87.8C82.3333 88.6 80.4667 89.0667 78.2 89.2C76.0667 89.2 74.4 88.6667 73.2 87.6C73.2 88.2667 73.2 88.8667 73.2 89.4C78 90.7333 81.5333 93.4 83.8 97.4C82.0667 95.9333 80.2 94.9333 78.2 94.4C76.3333 93.8667 74.4667 93.6 72.6 93.6C72.2 94.8 71.6667 95.8667 71 96.8C69.5333 98.8 67.3333 100.267 64.4 101.2C61.6 102.133 58.9333 102.4 56.4 102L56.2 102.2ZM124.4 86.6C126.267 85.4 128.6 84.7333 131.4 84.6C134.2 84.4667 136.467 85.0667 138.2 86.4C139.933 87.8667 141 90 141.4 92.8C141.8 95.4667 141.6 97.8667 140.8 100C140.8 97.7333 140.2 95.8 139 94.2C137.8 92.6 136.533 91.2667 135.2 90.2C133.733 89 132.067 88 130.2 87.2C128.467 86.2667 126.533 86.0667 124.4 86.6ZM66.8 94.4C64.9333 94.9333 63.1333 95.7333 61.4 96.8C59.6667 97.8667 58.1333 99.3333 56.8 101.2C58.9333 100.667 60.8 99.8 62.4 98.6C64.1333 97.2667 65.6 95.8667 66.8 94.4ZM144 100C146.667 100.533 149.133 101.867 151.4 104C153.8 106.133 155.2 108.533 155.6 111.2C156 113.867 155.333 116.533 153.6 119.2C151.867 121.867 149.8 123.867 147.4 125.2C149.133 123.2 150.2 121 150.6 118.6C151 116.2 151.067 113.933 150.8 111.8C150.533 109.8 149.867 107.733 148.8 105.6C147.867 103.333 146.267 101.467 144 100ZM17.2 130.6C14.6667 129.667 12.3333 128 10.2 125.6C8.2 123.2 7.2 120.6 7.2 117.8C7.2 115.133 8.2 112.6 10.2 110.2C12.3333 107.8 14.6667 106.133 17.2 105.2C15.2 106.933 13.8 108.933 13 111.2C12.3333 113.467 12 115.667 12 117.8C12 120.067 12.3333 122.333 13 124.6C13.8 126.867 15.2 128.867 17.2 130.6ZM35.6 149.6C32 152 27.8667 153 23.2 152.6C18.5333 152.2 14.4667 150.733 11 148.2C7.4 145.533 4.73333 142.067 3 137.8C1.26667 133.533 1 129.267 2.2 125C2.46667 129.4 3.46667 133.6 5.2 137.6C6.93333 141.467 9.2 144.467 12 146.6C14.8 148.6 18.3333 149.867 22.6 150.4C27 150.933 31.3333 150.667 35.6 149.6ZM147.4 128.2C147.267 130.733 146.4 133.333 144.8 136C143.2 138.667 141.2 140.333 138.8 141C136.4 141.8 133.733 141.6 130.8 140.4C128 139.067 125.867 137.4 124.4 135.4C126.533 136.733 128.733 137.4 131 137.4C133.267 137.4 135.4 137.067 137.4 136.4C139.267 135.867 141.133 135 143 133.8C145 132.467 146.467 130.6 147.4 128.2ZM53.8 134.6C52.4667 138.067 50 141.133 46.4 143.8C42.9333 146.333 39.3333 147.533 35.6 147.4C31.8667 147.4 28.2667 146.067 24.8 143.4C21.3333 140.6 19 137.467 17.8 134C20.2 136.933 23 139.133 26.2 140.6C29.5333 141.933 32.6667 142.6 35.6 142.6C38.6667 142.733 41.8 142.133 45 140.8C48.3333 139.467 51.2667 137.4 53.8 134.6ZM82.4 141C80.8 143.267 78.5333 145.133 75.6 146.6C72.6667 148.067 69.8667 148.467 67.2 147.8C64.5333 147.133 62.2 145.467 60.2 142.8C58.3333 140.133 57.2667 137.4 57 134.6C58.2 137.133 59.8667 139.067 62 140.4C64.1333 141.6 66.2667 142.533 68.4 143.2C70.5333 143.733 72.8 143.933 75.2 143.8C77.7333 143.533 80.1333 142.6 82.4 141ZM124.4 144.2C125.067 146.333 125.067 148.8 124.4 151.6C123.867 154.4 122.733 156.467 121 157.8C119.133 159.133 116.8 159.667 114 159.4C111.2 159 108.867 158.2 107 157C109.133 157.533 111.133 157.467 113 156.8C115 156 116.733 155 118.2 153.8C119.533 152.733 120.867 151.467 122.2 150C123.533 148.4 124.267 146.467 124.4 144.2ZM103.8 157C101.8 158.6 99.2 159.667 96 160.2C92.9333 160.733 90.2667 160.333 88 159C85.7333 157.667 84.0667 155.533 83 152.6C82.0667 149.533 81.8667 146.733 82.4 144.2C82.8 146.733 83.8 148.933 85.4 150.8C87 152.533 88.6667 153.933 90.4 155C92.2667 156.067 94.3333 156.867 96.6 157.4C98.8667 157.933 101.267 157.8 103.8 157ZM139.4 150.4C140.2 154.933 139.333 159.333 136.8 163.6C134.4 168 131.133 171.333 127 173.6C123 175.867 118.467 176.933 113.4 176.8C108.467 176.667 104.2 175.067 100.6 172C105 173.6 109.533 174.4 114.2 174.4C118.867 174.533 122.8 173.733 126 172C129.333 170.133 132.133 167.2 134.4 163.2C136.8 159.2 138.467 154.933 139.4 150.4ZM243.07 7.19999C245.87 4.13332 249.47 2.26665 253.87 1.59999C258.27 0.933323 262.404 1.39999 266.27 2.99999C270.137 4.59999 273.337 7.19999 275.87 10.8C278.537 14.4 279.737 18.3333 279.47 22.6C278.27 18.6 276.404 15 273.87 11.8C271.337 8.46666 268.537 6.13333 265.47 4.8C262.404 3.46666 258.804 3.06666 254.67 3.59999C250.537 4.13332 246.67 5.33332 243.07 7.19999ZM214.07 22C215.804 18.2667 218.67 15.1333 222.67 12.6C226.67 10.0667 230.804 8.99999 235.07 9.4C239.204 9.66666 243.07 11.4 246.67 14.6C250.27 17.6667 252.604 21.2 253.67 25.2C251.27 21.7333 248.337 19.1333 244.87 17.4C241.404 15.5333 238.004 14.4667 234.67 14.2C231.337 13.9333 227.804 14.4667 224.07 15.8C220.337 17 217.004 19.0667 214.07 22ZM180.67 38.4C180.27 34.8 180.937 31.1333 182.67 27.4C184.404 23.6667 186.87 21 190.07 19.4C193.27 17.6667 196.87 17.2 200.87 18C205.004 18.6667 208.337 20.2 210.87 22.6C207.67 21.2667 204.404 20.8 201.07 21.2C197.737 21.4667 194.804 22.2667 192.27 23.6C189.737 24.9333 187.337 26.8667 185.07 29.4C182.937 31.8 181.47 34.8 180.67 38.4ZM256.67 26.4C259.337 24.8 262.47 24 266.07 24C269.67 23.8667 272.67 24.7333 275.07 26.6C277.47 28.6 279.07 31.4 279.87 35C280.67 38.4667 280.537 41.6667 279.47 44.6C279.47 41.4 278.67 38.6667 277.07 36.4C275.604 34 273.937 32 272.07 30.4C270.204 28.9333 267.937 27.7333 265.27 26.8C262.604 25.8667 259.737 25.7333 256.67 26.4ZM152.47 79C148.204 75.6667 145.404 71.2667 144.07 65.8C142.737 60.2 142.87 54.8 144.47 49.6C146.07 44.5333 149.004 40.1333 153.27 36.4C157.537 32.5333 162.404 30.4667 167.87 30.2C162.804 32.2 158.27 35.0667 154.27 38.8C150.27 42.4 147.67 46.2 146.47 50.2C145.137 54.3333 145.07 59.0667 146.27 64.4C147.47 69.6 149.537 74.4667 152.47 79ZM172.27 50.8C171.47 49.8667 170.737 48.5333 170.07 46.8C169.537 45.0667 169.604 43.6667 170.27 42.6C170.937 41.5333 172.137 40.9333 173.87 40.8C175.737 40.5333 177.337 40.5333 178.67 40.8C177.337 40.9333 176.404 41.4667 175.87 42.4C175.47 43.3333 175.004 44.2667 174.47 45.2C173.937 46 173.337 46.8667 172.67 47.8C172.004 48.6 171.87 49.6 172.27 50.8ZM281.27 47.2C285.27 47.8667 288.937 49.8667 292.27 53.2C295.737 56.4 297.804 60 298.47 64C299.27 68 298.604 72.1333 296.47 76.4C294.47 80.5333 291.67 83.6667 288.07 85.8C290.737 82.6 292.47 79.1333 293.27 75.4C294.204 71.5333 294.404 68 293.87 64.8C293.337 61.6 292.004 58.4 289.87 55.2C287.737 52 284.87 49.3333 281.27 47.2ZM167.27 80.6C164.604 79.1333 162.337 76.8 160.47 73.6C158.604 70.2667 157.937 67.0667 158.47 64C159.004 60.8 160.604 58 163.27 55.6C166.07 53.0667 169.07 51.4667 172.27 50.8C169.47 52.5333 167.337 54.6667 165.87 57.2C164.537 59.7333 163.67 62.2 163.27 64.6C162.87 67.1333 162.937 69.8667 163.47 72.8C164.004 75.6 165.27 78.2 167.27 80.6ZM217.07 58.8C217.604 59.0667 218.07 59.3333 218.47 59.6C218.604 58.4 218.87 57.3333 219.27 56.4C219.27 57.7333 219.404 59.0667 219.67 60.4C221.27 61.7333 222.67 63.4 223.87 65.4C225.204 67.4 226.004 69.4667 226.27 71.6C228.137 73.3333 230.404 74.7333 233.07 75.8C235.737 76.8667 238.604 77.1333 241.67 76.6C239.404 77.9333 236.737 78.6667 233.67 78.8C230.737 78.8 228.07 78.2 225.67 77C224.737 79.5333 223.07 81.8 220.67 83.8C218.404 85.6667 216.004 86.8667 213.47 87.4C216.004 85.8 217.87 83.7333 219.07 81.2C220.404 78.6667 221.204 76.2 221.47 73.8V73.6C220.137 71.8667 219.204 69.8 218.67 67.4C218.137 65 218.004 62.6 218.27 60.2C217.87 59.6667 217.47 59.2 217.07 58.8ZM241.47 110.8C238.404 109.6 235.67 107.533 233.27 104.6C231.004 101.533 229.87 98.4 229.87 95.2C230.004 92 231.27 88.9333 233.67 86C236.07 82.9333 238.804 80.8667 241.87 79.8C239.337 81.9333 237.537 84.4 236.47 87.2C235.404 90 234.804 92.6667 234.67 95.2C234.67 97.8667 235.137 100.6 236.07 103.4C237.137 106.2 238.937 108.667 241.47 110.8ZM167.87 111.4C165.204 110.467 162.737 108.733 160.47 106.2C158.204 103.533 157.004 100.733 156.87 97.8C156.87 95 157.937 92.2667 160.07 89.6C162.204 86.8 164.604 84.8667 167.27 83.8C165.137 85.8 163.67 88.0667 162.87 90.6C162.07 93 161.67 95.4 161.67 97.8C161.804 100.067 162.27 102.467 163.07 105C164.004 107.4 165.604 109.533 167.87 111.4ZM288.07 89C291.404 90.4667 294.137 92.9333 296.27 96.4C298.537 99.8667 299.537 103.4 299.27 107C299.004 110.6 297.47 114 294.67 117.2C291.87 120.267 288.737 122.267 285.27 123.2C288.204 121.067 290.404 118.533 291.87 115.6C293.47 112.533 294.337 109.533 294.47 106.6C294.737 103.8 294.337 100.8 293.27 97.6C292.337 94.4 290.604 91.5333 288.07 89ZM216.67 120.2C216.937 118.6 217.537 117 218.47 115.4C217.404 116.2 216.337 116.867 215.27 117.4C217.27 115.4 218.604 113.2 219.27 110.8C219.937 108.267 220.137 105.867 219.87 103.6C219.737 101.333 219.204 99.0667 218.27 96.8C217.337 94.4 215.737 92.3333 213.47 90.6C216.137 91.4 218.604 93 220.87 95.4C223.27 97.8 224.537 100.4 224.67 103.2C224.937 105.467 224.404 107.733 223.07 110C224.27 109.2 225.537 108.667 226.87 108.4C229.404 107.867 232.004 108.4 234.67 110C237.337 111.467 239.337 113.333 240.67 115.6C238.67 114 236.47 113.067 234.07 112.8C231.804 112.533 229.67 112.6 227.67 113C225.67 113.4 223.67 114.133 221.67 115.2C219.67 116.267 218.004 117.933 216.67 120.2ZM303.07 97C307.07 99.5333 309.87 103.2 311.47 108C313.204 112.667 313.604 117.267 312.67 121.8C311.604 126.333 309.337 130.467 305.87 134.2C302.537 137.933 298.537 140.133 293.87 140.8C298.004 138.533 301.604 135.667 304.67 132.2C307.87 128.6 309.87 125 310.67 121.4C311.337 117.667 310.937 113.6 309.47 109.2C308.137 104.8 306.004 100.733 303.07 97ZM186.07 146.8C182.204 147.333 178.27 146.733 174.27 145C170.27 143.133 167.337 140.533 165.47 137.2C163.604 133.733 162.937 129.867 163.47 125.6C164.137 121.2 165.737 117.533 168.27 114.6C166.937 118.2 166.47 121.8 166.87 125.4C167.27 129 168.204 132.133 169.67 134.8C171.137 137.467 173.27 139.933 176.07 142.2C178.87 144.467 182.204 146 186.07 146.8ZM284.27 126.2C286.004 129.4 286.67 133.133 286.27 137.4C286.004 141.533 284.67 144.933 282.27 147.6C279.737 150.267 276.404 152 272.27 152.8C268.27 153.467 264.604 153.133 261.27 151.8C264.87 151.933 268.137 151.267 271.07 149.8C274.137 148.333 276.67 146.533 278.67 144.4C280.537 142.267 282.07 139.6 283.27 136.4C284.47 133.2 284.804 129.8 284.27 126.2ZM222.87 158.8C220.604 161.867 217.47 164.133 213.47 165.6C209.47 167.2 205.67 167.467 202.07 166.4C198.47 165.2 195.404 162.867 192.87 159.4C190.337 155.933 188.937 152.333 188.67 148.6C190.137 152.067 192.204 154.933 194.87 157.2C197.67 159.333 200.47 160.867 203.27 161.8C206.204 162.6 209.404 162.8 212.87 162.4C216.337 162.133 219.67 160.933 222.87 158.8ZM258.27 153.2C257.737 156.667 256.137 159.867 253.47 162.8C250.804 165.733 247.737 167.533 244.27 168.2C240.937 168.733 237.47 168.067 233.87 166.2C230.404 164.333 227.804 161.933 226.07 159C228.737 161.133 231.604 162.533 234.67 163.2C237.87 163.867 240.804 163.933 243.47 163.4C246.137 162.867 248.804 161.733 251.47 160C254.27 158.4 256.537 156.133 258.27 153.2ZM223.47 174C220.804 177.6 217.07 180.067 212.27 181.4C207.604 182.733 203.07 182.733 198.67 181.4C194.27 180.2 190.404 177.8 187.07 174.2C183.737 170.6 181.87 166.467 181.47 161.8C183.337 166.067 185.87 169.8 189.07 173C192.27 176.333 195.67 178.533 199.27 179.6C202.737 180.533 206.67 180.467 211.07 179.4C215.604 178.333 219.737 176.533 223.47 174ZM378.225 23C379.292 20.2 381.158 17.6667 383.825 15.4C386.625 13.1333 389.558 12 392.625 12C395.692 12 398.558 13.1333 401.225 15.4C404.025 17.6667 405.958 20.2 407.025 23C405.025 20.7333 402.692 19.1333 400.025 18.2C397.492 17.2667 395.025 16.8 392.625 16.8C390.225 16.8 387.692 17.2667 385.025 18.2C382.492 19.1333 380.225 20.7333 378.225 23ZM424.625 12.8C430.092 14.2667 434.558 17.4 438.025 22.2C441.625 27 443.692 32.2 444.225 37.8C444.758 43.2667 443.758 48.7333 441.225 54.2C438.825 59.5333 435.092 63.4667 430.025 66C433.892 62 437.025 57.4667 439.425 52.4C441.825 47.2 442.758 42.4 442.225 38C441.825 33.4667 439.958 28.9333 436.625 24.4C433.292 19.8667 429.292 16 424.625 12.8ZM324.225 55.2C321.825 51.4667 320.892 47.2667 321.425 42.6C321.958 37.8 323.558 33.6667 326.225 30.2C328.892 26.6 332.425 24 336.825 22.4C341.358 20.6667 345.692 20.4 349.825 21.6C345.425 21.8667 341.158 22.8667 337.025 24.6C333.025 26.3333 329.958 28.6 327.825 31.4C325.692 34.2 324.292 37.8 323.625 42.2C323.092 46.6 323.292 50.9333 324.225 55.2ZM349.625 46.8C348.158 43.3333 347.758 39.5333 348.425 35.4C349.225 31.2667 350.958 27.9333 353.625 25.4C356.292 23 359.692 21.6 363.825 21.2C368.092 20.8 371.825 21.4 375.025 23C371.425 22.6 368.025 23 364.825 24.2C361.625 25.4 358.958 27 356.825 29C354.692 31 352.892 33.5333 351.425 36.6C349.958 39.6667 349.358 43.0667 349.625 46.8ZM410.225 23C412.492 23.2667 414.758 24.2 417.025 25.8C419.292 27.2667 420.692 29.1333 421.225 31.4C421.625 33.5333 421.158 35.8 419.825 38.2C418.492 40.6 416.892 42.4 415.025 43.6C416.358 41.8667 417.025 40 417.025 38C417.025 36 416.825 34.1333 416.425 32.4C416.025 30.6667 415.358 28.9333 414.425 27.2C413.625 25.4667 412.225 24.0667 410.225 23ZM415.025 46.8C418.625 48.1333 421.758 50.6 424.425 54.2C427.092 57.6667 428.425 61.2667 428.425 65C428.425 68.8667 427.092 72.6 424.425 76.2C421.758 79.6667 418.625 82.0667 415.025 83.4C417.958 80.8667 420.092 77.9333 421.425 74.6C422.892 71.2667 423.625 68.0667 423.625 65C423.625 61.9333 422.892 58.8 421.425 55.6C420.092 52.2667 417.958 49.3333 415.025 46.8ZM328.225 74.6C326.492 71.8 325.558 68.4667 325.425 64.6C325.425 60.6 326.425 57.2667 328.425 54.6C330.425 51.9333 333.292 50.1333 337.025 49.2C340.892 48.2667 344.425 48.2667 347.625 49.2C344.292 49.3333 341.292 50.2667 338.625 52C335.958 53.6 333.825 55.4667 332.225 57.6C330.625 59.7333 329.358 62.2667 328.425 65.2C327.625 68.1333 327.558 71.2667 328.225 74.6ZM430.025 66C432.825 65.2 435.625 65.4 438.425 66.6C441.358 67.6667 443.625 69.4 445.225 71.8C446.825 74.0667 447.692 76.8 447.825 80C447.958 83.0667 447.158 85.7333 445.425 88C447.025 82.1333 446.425 77.1333 443.625 73C440.692 68.8667 436.158 66.5333 430.025 66ZM308.025 101.6C306.292 98.9333 305.358 95.7333 305.225 92C305.092 88.2667 305.958 85.0667 307.825 82.4C309.825 79.8667 312.625 78.1333 316.225 77.2C319.958 76.1333 323.358 76.0667 326.425 77C323.225 77.2667 320.358 78.2 317.825 79.8C315.292 81.4 313.292 83.2 311.825 85.2C310.225 87.3333 308.958 89.8667 308.025 92.8C307.225 95.6 307.225 98.5333 308.025 101.6ZM346.825 102.2V102C346.158 101.867 345.492 101.733 344.825 101.6C345.625 101.467 346.358 101.333 347.025 101.2C347.692 98.5333 349.092 96 351.225 93.6C353.492 91.0667 356.025 89.6 358.825 89.2C359.358 89.0667 359.892 89 360.425 89C360.958 87.5333 361.292 86 361.425 84.4C361.692 82.8 361.625 81.1333 361.225 79.4C361.492 79.9333 361.758 80.4 362.025 80.8C362.158 79.3333 362.492 78 363.025 76.8C362.892 78.5333 363.292 79.9333 364.225 81C365.158 82.0667 366.092 83.0667 367.025 84C367.958 84.9333 369.025 85.8667 370.225 86.8C371.425 87.7333 372.825 88.0667 374.425 87.8C372.958 88.6 371.092 89.0667 368.825 89.2C366.692 89.2 365.025 88.6667 363.825 87.6C363.825 88.2667 363.825 88.8667 363.825 89.4C368.625 90.7333 372.158 93.4 374.425 97.4C372.692 95.9333 370.825 94.9333 368.825 94.4C366.958 93.8667 365.092 93.6 363.225 93.6C362.825 94.8 362.292 95.8667 361.625 96.8C360.158 98.8 357.958 100.267 355.025 101.2C352.225 102.133 349.558 102.4 347.025 102L346.825 102.2ZM415.025 86.6C416.892 85.4 419.225 84.7333 422.025 84.6C424.825 84.4667 427.092 85.0667 428.825 86.4C430.558 87.8667 431.625 90 432.025 92.8C432.425 95.4667 432.225 97.8667 431.425 100C431.425 97.7333 430.825 95.8 429.625 94.2C428.425 92.6 427.158 91.2667 425.825 90.2C424.358 89 422.692 88 420.825 87.2C419.092 86.2667 417.158 86.0667 415.025 86.6ZM357.425 94.4C355.558 94.9333 353.758 95.7333 352.025 96.8C350.292 97.8667 348.758 99.3333 347.425 101.2C349.558 100.667 351.425 99.8 353.025 98.6C354.758 97.2667 356.225 95.8667 357.425 94.4ZM434.625 100C437.292 100.533 439.758 101.867 442.025 104C444.425 106.133 445.825 108.533 446.225 111.2C446.625 113.867 445.958 116.533 444.225 119.2C442.492 121.867 440.425 123.867 438.025 125.2C439.758 123.2 440.825 121 441.225 118.6C441.625 116.2 441.692 113.933 441.425 111.8C441.158 109.8 440.492 107.733 439.425 105.6C438.492 103.333 436.892 101.467 434.625 100ZM307.825 130.6C305.292 129.667 302.958 128 300.825 125.6C298.825 123.2 297.825 120.6 297.825 117.8C297.825 115.133 298.825 112.6 300.825 110.2C302.958 107.8 305.292 106.133 307.825 105.2C305.825 106.933 304.425 108.933 303.625 111.2C302.958 113.467 302.625 115.667 302.625 117.8C302.625 120.067 302.958 122.333 303.625 124.6C304.425 126.867 305.825 128.867 307.825 130.6ZM326.225 149.6C322.625 152 318.492 153 313.825 152.6C309.158 152.2 305.092 150.733 301.625 148.2C298.025 145.533 295.358 142.067 293.625 137.8C291.892 133.533 291.625 129.267 292.825 125C293.092 129.4 294.092 133.6 295.825 137.6C297.558 141.467 299.825 144.467 302.625 146.6C305.425 148.6 308.958 149.867 313.225 150.4C317.625 150.933 321.958 150.667 326.225 149.6ZM438.025 128.2C437.892 130.733 437.025 133.333 435.425 136C433.825 138.667 431.825 140.333 429.425 141C427.025 141.8 424.358 141.6 421.425 140.4C418.625 139.067 416.492 137.4 415.025 135.4C417.158 136.733 419.358 137.4 421.625 137.4C423.892 137.4 426.025 137.067 428.025 136.4C429.892 135.867 431.758 135 433.625 133.8C435.625 132.467 437.092 130.6 438.025 128.2ZM344.425 134.6C343.092 138.067 340.625 141.133 337.025 143.8C333.558 146.333 329.958 147.533 326.225 147.4C322.492 147.4 318.892 146.067 315.425 143.4C311.958 140.6 309.625 137.467 308.425 134C310.825 136.933 313.625 139.133 316.825 140.6C320.158 141.933 323.292 142.6 326.225 142.6C329.292 142.733 332.425 142.133 335.625 140.8C338.958 139.467 341.892 137.4 344.425 134.6ZM373.025 141C371.425 143.267 369.158 145.133 366.225 146.6C363.292 148.067 360.492 148.467 357.825 147.8C355.158 147.133 352.825 145.467 350.825 142.8C348.958 140.133 347.892 137.4 347.625 134.6C348.825 137.133 350.492 139.067 352.625 140.4C354.758 141.6 356.892 142.533 359.025 143.2C361.158 143.733 363.425 143.933 365.825 143.8C368.358 143.533 370.758 142.6 373.025 141ZM415.025 144.2C415.692 146.333 415.692 148.8 415.025 151.6C414.492 154.4 413.358 156.467 411.625 157.8C409.758 159.133 407.425 159.667 404.625 159.4C401.825 159 399.492 158.2 397.625 157C399.758 157.533 401.758 157.467 403.625 156.8C405.625 156 407.358 155 408.825 153.8C410.158 152.733 411.492 151.467 412.825 150C414.158 148.4 414.892 146.467 415.025 144.2ZM394.425 157C392.425 158.6 389.825 159.667 386.625 160.2C383.558 160.733 380.892 160.333 378.625 159C376.358 157.667 374.692 155.533 373.625 152.6C372.692 149.533 372.492 146.733 373.025 144.2C373.425 146.733 374.425 148.933 376.025 150.8C377.625 152.533 379.292 153.933 381.025 155C382.892 156.067 384.958 156.867 387.225 157.4C389.492 157.933 391.892 157.8 394.425 157ZM430.025 150.4C430.825 154.933 429.958 159.333 427.425 163.6C425.025 168 421.758 171.333 417.625 173.6C413.625 175.867 409.092 176.933 404.025 176.8C399.092 176.667 394.825 175.067 391.225 172C395.625 173.6 400.158 174.4 404.825 174.4C409.492 174.533 413.425 173.733 416.625 172C419.958 170.133 422.758 167.2 425.025 163.2C427.425 159.2 429.092 154.933 430.025 150.4Z" fill="#835DFF"/>
</svg>
