<svg width="40" height="91" viewBox="0 0 40 91" fill="none" xmlns="http://www.w3.org/2000/svg">
<g filter="url(#filter0_i_415_2219)">
<path d="M39.9975 70.46C39.9975 77.6533 38.2641 82.8967 34.7975 86.19C31.3308 89.3967 25.6975 91 17.8975 91H0.867461V81.25H19.0675C22.3608 81.25 24.7875 80.5133 26.3475 79.04C27.9075 77.48 28.6875 75.0533 28.6875 71.76V55.25C28.6875 52.39 27.8208 50.1367 26.0875 48.49C24.3541 46.7567 22.0575 45.89 19.1975 45.89H2.16746V-6.19888e-06H38.0475V9.75H13.2175V36.14H18.5475C25.2208 36.14 30.4641 37.7867 34.2775 41.08C38.0908 44.3733 39.9975 49.4867 39.9975 56.42V70.46Z" fill="white" fill-opacity="0.85"/>
</g>
<defs>
<filter id="filter0_i_415_2219" x="0.867432" y="0" width="39.1301" height="91" filterUnits="userSpaceOnUse" color-interpolation-filters="sRGB">
<feFlood flood-opacity="0" result="BackgroundImageFix"/>
<feBlend mode="normal" in="SourceGraphic" in2="BackgroundImageFix" result="shape"/>
<feColorMatrix in="SourceAlpha" type="matrix" values="0 0 0 0 0 0 0 0 0 0 0 0 0 0 0 0 0 0 127 0" result="hardAlpha"/>
<feOffset/>
<feGaussianBlur stdDeviation="2.16531"/>
<feComposite in2="hardAlpha" operator="arithmetic" k2="-1" k3="1"/>
<feColorMatrix type="matrix" values="0 0 0 0 0 0 0 0 0 0 0 0 0 0 0 0 0 0 0.39 0"/>
<feBlend mode="normal" in2="shape" result="effect1_innerShadow_415_2219"/>
</filter>
</defs>
</svg>
