<svg width="49" height="91" viewBox="0 0 49 91" fill="none" xmlns="http://www.w3.org/2000/svg">
<g filter="url(#filter0_i_415_2288)">
<path d="M48.4175 70.46C48.4175 77.6533 46.6841 82.8967 43.2175 86.19C39.7508 89.3967 34.1175 91 26.3175 91H22.6775C14.8775 91 9.24413 89.3967 5.77746 86.19C2.31079 82.8967 0.577461 77.6533 0.577461 70.46V59.54C0.577461 52 3.39413 46.67 9.02746 43.55C4.43413 40.3433 2.13746 35.3167 2.13746 28.47V20.28C2.13746 13.3467 3.95746 8.23333 7.59746 4.93999C11.2375 1.64666 16.4375 -6.19888e-06 23.1975 -6.19888e-06H25.7975C32.5575 -6.19888e-06 37.7575 1.64666 41.3975 4.93999C45.0375 8.23333 46.8575 13.3467 46.8575 20.28V28.47C46.8575 35.3167 44.5608 40.3433 39.9675 43.55C45.6008 46.67 48.4175 52 48.4175 59.54V70.46ZM21.6375 9.75C18.6908 9.83667 16.5675 10.66 15.2675 12.22C14.0541 13.6933 13.4475 15.99 13.4475 19.11V29.77C13.4475 32.5433 14.2275 34.7967 15.7875 36.53C17.4341 38.1767 19.4708 39.0867 21.8975 39.26H26.3175C29.0041 39.26 31.2141 38.3933 32.9475 36.66C34.6808 34.9267 35.5475 32.63 35.5475 29.77V19.11C35.5475 15.8167 34.8108 13.4333 33.3375 11.96C31.9508 10.4867 29.6108 9.75 26.3175 9.75H21.6375ZM37.1075 58.37C37.1075 55.51 36.2408 53.2567 34.5075 51.61C32.7741 49.8767 30.4775 49.01 27.6175 49.01H21.3775C18.5175 49.01 16.2208 49.8767 14.4875 51.61C12.7541 53.2567 11.8875 55.51 11.8875 58.37V71.76C11.8875 74.9667 12.5808 77.35 13.9675 78.91C15.3541 80.47 17.5208 81.25 20.4675 81.25H27.4875C30.7808 81.25 33.2075 80.5133 34.7675 79.04C36.3275 77.48 37.1075 75.0533 37.1075 71.76V58.37Z" fill="white" fill-opacity="0.85"/>
</g>
<defs>
<filter id="filter0_i_415_2288" x="0.577393" y="0" width="47.8401" height="91" filterUnits="userSpaceOnUse" color-interpolation-filters="sRGB">
<feFlood flood-opacity="0" result="BackgroundImageFix"/>
<feBlend mode="normal" in="SourceGraphic" in2="BackgroundImageFix" result="shape"/>
<feColorMatrix in="SourceAlpha" type="matrix" values="0 0 0 0 0 0 0 0 0 0 0 0 0 0 0 0 0 0 127 0" result="hardAlpha"/>
<feOffset/>
<feGaussianBlur stdDeviation="2.16531"/>
<feComposite in2="hardAlpha" operator="arithmetic" k2="-1" k3="1"/>
<feColorMatrix type="matrix" values="0 0 0 0 0 0 0 0 0 0 0 0 0 0 0 0 0 0 0.39 0"/>
<feBlend mode="normal" in2="shape" result="effect1_innerShadow_415_2288"/>
</filter>
</defs>
</svg>
