<svg width="50" height="50" viewBox="0 0 50 50" fill="none" xmlns="http://www.w3.org/2000/svg">
<path opacity="0.4" d="M41.3155 36.9172L42.2723 44.6701C42.5177 46.7065 40.3341 48.1294 38.5921 47.0745L28.3121 40.9653C27.1835 40.9653 26.0794 40.8918 24.9999 40.7446C26.8155 38.6101 27.895 35.9112 27.895 32.9916C27.895 26.0237 21.8595 20.3809 14.4009 20.3809C11.5549 20.3809 8.9297 21.1904 6.74611 22.6134C6.6725 22.0001 6.64795 21.3867 6.64795 20.7488C6.64795 9.5855 16.3392 0.532227 28.3121 0.532227C40.285 0.532227 49.9762 9.5855 49.9762 20.7488C49.9762 27.3732 46.5659 33.237 41.3155 36.9172Z" fill="white"/>
<path d="M27.8951 32.9916C27.8951 35.9112 26.8156 38.6101 25.0001 40.7446C22.5711 43.6888 18.7192 45.5779 14.4011 45.5779L7.99751 49.3807C6.91798 50.0432 5.54403 49.1354 5.69124 47.8841L6.30461 43.0509C3.01696 40.7692 0.906982 37.1134 0.906982 32.9916C0.906982 28.6735 3.21325 24.8706 6.74625 22.6134C8.92984 21.1904 11.555 20.3809 14.4011 20.3809C21.8596 20.3809 27.8951 26.0237 27.8951 32.9916Z" fill="white"/>
</svg>
