<svg width="37" height="38" viewBox="0 0 37 38" fill="none" xmlns="http://www.w3.org/2000/svg">
<path d="M21.9694 8.82088C21.9662 8.81942 21.963 8.81795 21.9598 8.81649C21.9671 9.36895 22.0472 9.92049 22.2 10.4566L22.4312 11.2532L21.1402 12.2831C21.1399 12.283 21.1405 12.2833 21.1402 12.2831L18.5938 14.3133C17.3194 15.3485 17.0032 17.1 17.7198 18.4757L16.4772 19.7167C16.0909 20.1145 16.0909 20.7413 16.4772 21.1391C16.8755 21.537 17.5032 21.537 17.9015 21.1391L19.1413 19.901C20.5193 20.6239 22.2769 20.308 23.3064 19.0222L26.3894 15.1591L27.2548 15.4115C27.4472 15.4679 27.641 15.5144 27.8354 15.5511C28.1546 15.6115 28.4783 15.6461 28.8035 15.6543C28.8035 15.6543 28.8035 15.6543 28.8035 15.6543C30.4869 15.6973 32.1432 15.0355 33.3582 13.7742L34.3755 12.7257C34.947 12.1485 34.6955 11.159 33.9297 10.9352L30.0625 9.875L30.0605 9.87722C30.0718 9.61297 30.0359 9.34746 29.9534 9.09412L30.9204 8.12709C31.3182 7.72928 31.3182 7.10241 30.9204 6.7046C30.5226 6.3068 29.8957 6.3068 29.4979 6.7046L28.5307 7.67188C28.2774 7.58934 28.0121 7.55336 27.7479 7.56446L27.75 7.5625L26.6027 3.70407C26.383 2.92939 25.4117 2.67503 24.8452 3.25315L23.8161 4.2822C22.5948 5.49477 21.9461 7.14174 21.9694 8.82088Z" fill="url(#paint0_linear_415_1607)"/>
<path d="M25.884 17.6525L26.8146 16.4864L26.936 16.5211C27.5928 16.7139 28.2738 16.812 28.9583 16.8125C29.0624 16.8121 29.1664 16.8094 29.2702 16.8046C29.7833 18.2534 30.0625 19.8128 30.0625 21.4375C30.0625 29.1004 23.8505 35.3125 16.1875 35.3125C8.52455 35.3125 2.3125 29.1004 2.3125 21.4375C2.3125 13.7746 8.52455 7.5625 16.1875 7.5625C17.8123 7.5625 19.3718 7.84177 20.8207 8.35491C20.7795 9.16699 20.8717 9.98378 21.0969 10.7722L21.112 10.8277L19.9683 11.7394C18.7964 11.2822 17.5213 11.0312 16.1875 11.0312C10.4403 11.0312 5.78125 15.6903 5.78125 21.4375C5.78125 27.1847 10.4403 31.8438 16.1875 31.8438C21.9347 31.8438 26.5938 27.1847 26.5938 21.4375C26.5938 20.1021 26.3422 18.8255 25.884 17.6525Z" fill="url(#paint1_linear_415_1607)"/>
<path d="M19.6541 21.3154C20.4445 21.5033 21.2726 21.4743 22.0502 21.2291C22.4182 21.113 22.7678 20.9507 23.0911 20.7476C23.1135 20.9745 23.125 21.2047 23.125 21.4375C23.125 25.269 20.019 28.375 16.1875 28.375C12.356 28.375 9.25 25.269 9.25 21.4375C9.25 17.606 12.356 14.5 16.1875 14.5C16.4222 14.5 16.6542 14.5117 16.883 14.5344C16.6815 14.8582 16.5205 15.2076 16.405 15.5752C16.1608 16.3527 16.13 17.18 16.3138 17.971C16.2719 17.9695 16.2298 17.9688 16.1875 17.9688C14.2718 17.9688 12.7188 19.5218 12.7188 21.4375C12.7188 23.3532 14.2718 24.9062 16.1875 24.9062C18.1032 24.9062 19.6562 23.3532 19.6562 21.4375C19.6562 21.3966 19.6555 21.3559 19.6541 21.3154Z" fill="url(#paint2_linear_415_1607)"/>
<defs>
<linearGradient id="paint0_linear_415_1607" x1="31.8097" y1="35.3125" x2="-1.47966" y2="10.8259" gradientUnits="userSpaceOnUse">
<stop stop-color="#6F54FF"/>
<stop offset="1" stop-color="#965AFE"/>
</linearGradient>
<linearGradient id="paint1_linear_415_1607" x1="31.8097" y1="35.3125" x2="-1.47966" y2="10.8259" gradientUnits="userSpaceOnUse">
<stop stop-color="#6F54FF"/>
<stop offset="1" stop-color="#965AFE"/>
</linearGradient>
<linearGradient id="paint2_linear_415_1607" x1="31.8097" y1="35.3125" x2="-1.47966" y2="10.8259" gradientUnits="userSpaceOnUse">
<stop stop-color="#6F54FF"/>
<stop offset="1" stop-color="#965AFE"/>
</linearGradient>
</defs>
</svg>
