<svg width="38" height="38" viewBox="0 0 38 38" fill="none" xmlns="http://www.w3.org/2000/svg">
<path d="M24.3901 7.62366C24.3901 5.65804 25.9858 4.07397 27.9398 4.07397C29.8939 4.07397 31.4779 5.65804 31.4895 7.62366V14.8214C33.327 15.3109 34.6807 16.9864 34.6807 18.9781C34.6807 20.9698 33.327 22.6453 31.4895 23.1347V30.344C31.4895 32.3096 29.8939 33.8937 27.9398 33.8937C27.0162 33.8937 26.1768 33.5413 25.5464 32.965C24.8353 32.3149 24.3901 31.3798 24.3901 30.344V30.0756L17.5332 26.7018C16.8252 26.3542 16.0731 26.1022 15.3005 25.9523C14.8662 25.8734 14.4261 25.8247 13.9839 25.8072C13.8607 25.8023 13.7373 25.7999 13.6139 25.7999L13.6095 25.7884H11.6714V32.747C11.6714 33.5217 11.047 34.146 10.2723 34.146H7.29611C6.52143 34.146 5.89705 33.5217 5.89705 32.747V25.7884H4.41779C3.31264 25.7884 2.42139 24.9212 2.42139 23.8574V14.1102C2.42139 13.0349 3.31264 12.1677 4.41779 12.1677H13.6139C13.6493 12.1677 13.6848 12.1675 13.7203 12.1671C15.0401 12.1511 16.3489 11.8378 17.5349 11.2664L24.3901 7.89352V7.62366ZM8.20955 25.7884V31.8335H9.3589V25.7884H8.20955ZM22.7136 11.3618L18.8006 13.287L18.7923 13.291C17.646 13.8437 16.4102 14.2144 15.1402 14.3805V23.3058L15.253 23.6027C16.4864 23.7768 17.6884 24.1459 18.8073 24.6954L18.8089 24.6962L22.7136 26.6173V11.3618Z" fill="url(#paint0_linear_415_1598)"/>
<defs>
<linearGradient id="paint0_linear_415_1598" x1="31.8132" y1="34.1461" x2="0.310244" y2="9.28801" gradientUnits="userSpaceOnUse">
<stop stop-color="#6152FF"/>
<stop offset="1" stop-color="#9350FF"/>
</linearGradient>
</defs>
</svg>
