<svg width="38" height="38" viewBox="0 0 38 38" fill="none" xmlns="http://www.w3.org/2000/svg">
<path d="M23.8942 4.1905C26.6937 1.4814 31.3711 3.4727 31.3711 7.38585C31.3711 7.87594 31.2288 8.33324 30.9829 8.71875H32.136C33.632 8.71875 34.8398 9.93398 34.8398 11.4266V16.4172C34.8398 17.7771 33.8372 18.9068 32.5273 19.0969V32.9002C32.5273 34.8746 30.9121 36.4688 28.9292 36.4688H8.37549C6.39617 36.4688 4.77734 34.8896 4.77734 32.9002V19.0969C3.46753 18.9068 2.46484 17.7771 2.46484 16.4172V11.4266C2.46484 9.93398 3.67265 8.71875 5.16868 8.71875H6.31671C6.07398 8.33373 5.93359 7.87669 5.93359 7.38585C5.93359 3.4727 10.611 1.46982 13.4105 4.1905L15.4806 6.19767C16.0206 4.95776 17.2395 4.09375 18.658 4.09375C20.0748 4.09375 21.2924 4.95562 21.8288 6.19306L23.8942 4.1905ZM7.08984 19.125V32.9002C7.08984 33.586 7.64671 34.1562 8.37549 34.1562H15.1836V19.125H7.08984ZM22.121 19.125V34.1562H28.9292C29.6544 34.1562 30.2148 33.5781 30.2148 32.9002V19.125H22.121ZM32.5273 16.4172V11.4266C32.5273 11.2055 32.3493 11.0312 32.136 11.0312H22.121V16.8125H32.136C32.3493 16.8125 32.5273 16.6383 32.5273 16.4172ZM15.1836 11.0312H5.16868C4.95543 11.0312 4.77734 11.2055 4.77734 11.4266V16.4172C4.77734 16.6383 4.95543 16.8125 5.16868 16.8125H15.1836V11.0312Z" fill="url(#paint0_linear_415_1594)"/>
<defs>
<linearGradient id="paint0_linear_415_1594" x1="31.9621" y1="36.4688" x2="-2.13878" y2="12.2502" gradientUnits="userSpaceOnUse">
<stop stop-color="#6152FF"/>
<stop offset="1" stop-color="#9350FF"/>
</linearGradient>
</defs>
</svg>
