<svg width="396" height="133" viewBox="0 0 396 133" fill="none" xmlns="http://www.w3.org/2000/svg">
<rect width="21.1175" height="30.5795" transform="matrix(-0.985017 -0.172455 -0.169482 0.985533 300.617 52.1575)" fill="#8C4ECA"/>
<rect width="21.1175" height="30.5795" transform="matrix(0.985017 -0.172455 0.169482 0.985533 79.7031 47.8254)" fill="#8C4ECA"/>
<path d="M352.598 110.023H334.074L331.224 121.752L323.149 132.543H341.673L349.51 121.752L352.598 110.023Z" fill="#F1EB60"/>
<path d="M42.4492 110.023H60.9731L63.823 121.752L71.8975 132.543H53.3736L45.5365 121.752L42.4492 110.023Z" fill="#F1EB60"/>
<path d="M395.047 6.92969H380.337L378.074 16.4029L371.661 25.1183H386.372L392.595 16.4029L395.047 6.92969Z" fill="#F1EB60"/>
<path d="M0 6.92969H14.7102L16.9733 16.4029L23.3854 25.1183H8.67523L2.45169 16.4029L0 6.92969Z" fill="#F1EB60"/>
<path d="M246.848 0H232.137L229.874 9.47325L223.462 18.1886H238.172L244.396 9.47325L246.848 0Z" fill="#F1EB60"/>
<path d="M332.289 64.7352L345.294 52.8439L353.025 78.2754L340.021 90.1667L332.289 64.7352Z" fill="#FF9999"/>
<path d="M155.492 15.3562L142.487 3.46496L134.756 28.8965L147.76 40.7878L155.492 15.3562Z" fill="#FF9999"/>
<path d="M266.698 52.738L276.101 44.1834L281.692 62.4788L272.288 71.0333L266.698 52.738Z" fill="#FF9999"/>
<path d="M109.287 76.9958L99.8833 68.4413L94.2927 86.7366L103.696 95.2912L109.287 76.9958Z" fill="#FF9999"/>
<path d="M328.469 18.0666L334.991 19.0736L329.426 27.2996L322.904 26.2925L328.469 18.0666Z" fill="#FF9999"/>
</svg>
