<svg width="83" height="94" viewBox="0 0 83 94" fill="none" xmlns="http://www.w3.org/2000/svg">
<g filter="url(#filter0_d_263_1068)">
<path fill-rule="evenodd" clip-rule="evenodd" d="M19.9745 11C15.5703 11 12 14.5703 12 18.9745V57.6321C12 58.3135 12.0855 58.975 12.2463 59.6063C12.2677 61.3307 13.0132 63.0709 14.6512 64.3313L39.6794 83.5892C41.8846 85.286 44.9557 85.286 47.1609 83.5892L72.1891 64.3313C73.831 63.0679 74.5761 61.3226 74.5942 59.5942C74.753 58.9665 74.8373 58.3092 74.8373 57.6321V18.9745C74.8373 14.5703 71.267 11 66.8628 11H19.9745Z" fill="url(#paint0_linear_263_1068)"/>
</g>
<defs>
<filter id="filter0_d_263_1068" x="0.105377" y="0.0646209" width="82.7896" height="93.8141" filterUnits="userSpaceOnUse" color-interpolation-filters="sRGB">
<feFlood flood-opacity="0" result="BackgroundImageFix"/>
<feColorMatrix in="SourceAlpha" type="matrix" values="0 0 0 0 0 0 0 0 0 0 0 0 0 0 0 0 0 0 127 0" result="hardAlpha"/>
<feOffset dx="-1.91849" dy="-0.959244"/>
<feGaussianBlur stdDeviation="4.98807"/>
<feComposite in2="hardAlpha" operator="out"/>
<feColorMatrix type="matrix" values="0 0 0 0 0.823568 0 0 0 0 0.823568 0 0 0 0 0.823568 0 0 0 0.3 0"/>
<feBlend mode="normal" in2="BackgroundImageFix" result="effect1_dropShadow_263_1068"/>
<feBlend mode="normal" in="SourceGraphic" in2="effect1_dropShadow_263_1068" result="shape"/>
</filter>
<linearGradient id="paint0_linear_263_1068" x1="69.2518" y1="84.8618" x2="-2.29981" y2="40.0863" gradientUnits="userSpaceOnUse">
<stop stop-color="#FFB03A"/>
<stop offset="1" stop-color="#FFF6E1"/>
</linearGradient>
</defs>
</svg>
