<svg width="83" height="94" viewBox="0 0 83 94" fill="none" xmlns="http://www.w3.org/2000/svg">
<g filter="url(#filter0_d_263_1125)">
<path fill-rule="evenodd" clip-rule="evenodd" d="M19.9309 11.0039C15.5508 11.0039 12 14.5547 12 18.9348V57.3693C12 58.0719 12.0914 58.7532 12.2629 59.4019C12.3016 61.1012 13.0488 62.8097 14.6669 64.0476L39.7123 83.2093C41.9002 84.8832 44.9385 84.8832 47.1264 83.2093L72.1718 64.0476C73.7916 62.8083 74.5387 61.0975 74.5759 59.3965C74.7465 58.7494 74.8373 58.07 74.8373 57.3693V18.9348C74.8373 14.5547 71.2866 11.0039 66.9064 11.0039H19.9309Z" fill="url(#paint0_linear_263_1125)"/>
</g>
<defs>
<filter id="filter0_d_263_1125" x="0.170393" y="0.128299" width="82.6806" height="93.3041" filterUnits="userSpaceOnUse" color-interpolation-filters="sRGB">
<feFlood flood-opacity="0" result="BackgroundImageFix"/>
<feColorMatrix in="SourceAlpha" type="matrix" values="0 0 0 0 0 0 0 0 0 0 0 0 0 0 0 0 0 0 127 0" result="hardAlpha"/>
<feOffset dx="-1.908" dy="-0.954001"/>
<feGaussianBlur stdDeviation="4.9608"/>
<feComposite in2="hardAlpha" operator="out"/>
<feColorMatrix type="matrix" values="0 0 0 0 0.823568 0 0 0 0 0.823568 0 0 0 0 0.823568 0 0 0 0.3 0"/>
<feBlend mode="normal" in2="BackgroundImageFix" result="effect1_dropShadow_263_1125"/>
<feBlend mode="normal" in="SourceGraphic" in2="effect1_dropShadow_263_1125" result="shape"/>
</filter>
<linearGradient id="paint0_linear_263_1125" x1="69.2518" y1="84.4648" x2="-2.08009" y2="39.5831" gradientUnits="userSpaceOnUse">
<stop stop-color="#6F54FF"/>
<stop offset="1" stop-color="#965AFE"/>
</linearGradient>
</defs>
</svg>
