<svg width="220" height="227" viewBox="0 0 220 227" fill="none" xmlns="http://www.w3.org/2000/svg">
<rect y="7" width="220" height="220" rx="25" fill="#079DC7"/>
<rect width="220" height="220" rx="25" fill="url(#paint0_linear_262_487)"/>
<g filter="url(#filter0_d_262_487)">
<circle cx="110" cy="124" r="62" fill="url(#paint1_linear_262_487)"/>
</g>
<path d="M105.853 93.1567C107.835 90.2144 112.165 90.2144 114.147 93.1567L127.944 113.64L138.785 135.83C140.342 139.018 138.177 142.768 134.638 143.013L110 144.72L85.3624 143.013C81.8234 142.768 79.6582 139.018 81.2154 135.83L92.056 113.64L105.853 93.1567Z" fill="#04BFF4"/>
<path d="M90.6646 45V27.3242H93.8384V42.3145H101.651V45H90.6646ZM114.224 31.7432L109.488 45H106.07L101.333 31.7432H104.654L107.706 41.6064H107.852L110.928 31.7432H114.224ZM117.276 45.1953C116.226 45.1953 115.372 44.3408 115.372 43.291C115.372 42.2656 116.226 41.4111 117.276 41.4111C118.277 41.4111 119.156 42.2656 119.156 43.291C119.156 44.3408 118.277 45.1953 117.276 45.1953ZM127.139 27.3242V45H123.941V30.4248H123.843L119.717 33.0615V30.1562L124.087 27.3242H127.139Z" fill="#BBEBF9"/>
<defs>
<filter id="filter0_d_262_487" x="34.6" y="58.6" width="150.8" height="150.8" filterUnits="userSpaceOnUse" color-interpolation-filters="sRGB">
<feFlood flood-opacity="0" result="BackgroundImageFix"/>
<feColorMatrix in="SourceAlpha" type="matrix" values="0 0 0 0 0 0 0 0 0 0 0 0 0 0 0 0 0 0 127 0" result="hardAlpha"/>
<feOffset dy="10"/>
<feGaussianBlur stdDeviation="6.7"/>
<feComposite in2="hardAlpha" operator="out"/>
<feColorMatrix type="matrix" values="0 0 0 0 0.0166901 0 0 0 0 0.504843 0 0 0 0 0.858333 0 0 0 1 0"/>
<feBlend mode="normal" in2="BackgroundImageFix" result="effect1_dropShadow_262_487"/>
<feBlend mode="normal" in="SourceGraphic" in2="effect1_dropShadow_262_487" result="shape"/>
</filter>
<linearGradient id="paint0_linear_262_487" x1="220" y1="230" x2="19" y2="4.44055e-06" gradientUnits="userSpaceOnUse">
<stop stop-color="#04BFF4"/>
<stop offset="1" stop-color="#8BE5FF"/>
</linearGradient>
<linearGradient id="paint1_linear_262_487" x1="110" y1="62" x2="110" y2="186" gradientUnits="userSpaceOnUse">
<stop stop-color="#F9FBFA"/>
<stop offset="1" stop-color="#E5E5FF"/>
</linearGradient>
</defs>
</svg>
