<svg width="221" height="228" viewBox="0 0 221 228" fill="none" xmlns="http://www.w3.org/2000/svg">
<rect x="0.25" y="7.25" width="220" height="220" rx="25" fill="#2727E1"/>
<rect x="0.25" y="0.25" width="220" height="220" rx="25" fill="url(#paint0_linear_262_481)"/>
<g filter="url(#filter0_d_262_481)">
<circle cx="110.25" cy="124.25" r="62" fill="url(#paint1_linear_262_481)"/>
</g>
<path d="M105.966 94.3686C107.909 91.1395 112.591 91.1395 114.534 94.3686L121.337 105.672C122.035 106.832 123.174 107.66 124.493 107.965L137.345 110.942C141.017 111.792 142.463 116.244 139.993 119.091L131.344 129.053C130.457 130.076 130.022 131.414 130.139 132.763L131.28 145.906C131.606 149.661 127.818 152.413 124.348 150.943L112.2 145.796C110.954 145.268 109.546 145.268 108.3 145.796L96.152 150.943C92.6818 152.413 88.8944 149.661 89.2203 145.906L90.361 132.763C90.478 131.414 90.0431 130.076 89.1555 129.053L80.5073 119.091C78.0367 116.244 79.4834 111.792 83.1549 110.942L96.0075 107.965C97.3265 107.66 98.4652 106.832 99.1633 105.672L105.966 94.3686Z" fill="#3D35EB"/>
<path d="M87.7104 46V28.3242H90.8843V43.3145H98.6968V46H87.7104ZM111.27 32.7432L106.534 46H103.116L98.3794 32.7432H101.7L104.751 42.6064H104.898L107.974 32.7432H111.27ZM114.322 46.1953C113.272 46.1953 112.405 45.3408 112.417 44.291C112.405 43.2656 113.272 42.4233 114.322 42.4111C115.335 42.4233 116.202 43.2656 116.202 44.291C116.202 45.3408 115.335 46.1953 114.322 46.1953ZM125.015 46.2441C121.243 46.2441 118.545 44.1934 118.472 41.2148H121.67C121.756 42.6309 123.172 43.5708 125.015 43.5586C126.956 43.5708 128.36 42.4966 128.36 40.9219C128.36 39.335 126.993 38.1997 124.698 38.1875H123.111V35.7461H124.698C126.578 35.7461 127.884 34.6963 127.872 33.1582C127.884 31.6689 126.761 30.668 125.04 30.668C123.379 30.668 121.951 31.5957 121.89 33.085H118.838C118.912 30.1187 121.609 28.0801 125.064 28.0801C128.653 28.0801 130.972 30.2773 130.948 32.9873C130.972 34.9648 129.654 36.3931 127.725 36.7959V36.9424C130.215 37.272 131.631 38.8711 131.607 41.0928C131.631 44.0835 128.836 46.2441 125.015 46.2441Z" fill="#9A98FF"/>
<defs>
<filter id="filter0_d_262_481" x="34.85" y="58.85" width="150.8" height="150.8" filterUnits="userSpaceOnUse" color-interpolation-filters="sRGB">
<feFlood flood-opacity="0" result="BackgroundImageFix"/>
<feColorMatrix in="SourceAlpha" type="matrix" values="0 0 0 0 0 0 0 0 0 0 0 0 0 0 0 0 0 0 127 0" result="hardAlpha"/>
<feOffset dy="10"/>
<feGaussianBlur stdDeviation="6.7"/>
<feComposite in2="hardAlpha" operator="out"/>
<feColorMatrix type="matrix" values="0 0 0 0 0.117647 0 0 0 0 0.0980392 0 0 0 0 0.498039 0 0 0 1 0"/>
<feBlend mode="normal" in2="BackgroundImageFix" result="effect1_dropShadow_262_481"/>
<feBlend mode="normal" in="SourceGraphic" in2="effect1_dropShadow_262_481" result="shape"/>
</filter>
<linearGradient id="paint0_linear_262_481" x1="-6.94513e-07" y1="11.5" x2="220" y2="220" gradientUnits="userSpaceOnUse">
<stop stop-color="#6D6AFF"/>
<stop offset="1" stop-color="#4945FE"/>
</linearGradient>
<linearGradient id="paint1_linear_262_481" x1="110.25" y1="62.25" x2="110.25" y2="186.25" gradientUnits="userSpaceOnUse">
<stop stop-color="#F9FBFA"/>
<stop offset="1" stop-color="#E5E5FF"/>
</linearGradient>
</defs>
</svg>
