<svg width="220" height="228" viewBox="0 0 220 228" fill="none" xmlns="http://www.w3.org/2000/svg">
<rect y="7.25" width="220" height="220" rx="25" fill="#D63453"/>
<rect y="0.25" width="220" height="220" rx="25" fill="url(#paint0_linear_262_510)"/>
<g filter="url(#filter0_d_262_510)">
<circle cx="110" cy="124.25" r="62" fill="url(#paint1_linear_262_510)"/>
</g>
<path d="M105.511 96.4041C107.341 92.6729 112.659 92.6729 114.489 96.4041L117.26 102.054C118.275 104.125 120.575 105.232 122.827 104.735L128.972 103.379C133.03 102.483 136.346 106.641 134.57 110.398L131.88 116.087C130.894 118.172 131.462 120.66 133.255 122.111L138.147 126.07C141.377 128.684 140.194 133.869 136.149 134.823L130.024 136.267C127.779 136.796 126.188 138.792 126.171 141.098L126.127 147.39C126.097 151.546 121.305 153.854 118.037 151.286L113.089 147.398C111.276 145.973 108.724 145.973 106.911 147.398L101.963 151.286C98.6952 153.854 93.9032 151.546 93.8735 147.39L93.8285 141.098C93.812 138.792 92.2206 136.796 89.976 136.267L83.8512 134.823C79.8063 133.869 78.6228 128.684 81.8533 126.07L86.745 122.111C88.5377 120.66 89.1057 118.172 88.12 116.087L85.4302 110.398C83.6539 106.641 86.9701 102.483 91.0282 103.379L97.173 104.735C99.4249 105.232 101.725 104.125 102.74 102.054L105.511 96.4041Z" fill="#F44F6F"/>
<path d="M87.7104 46V28.3242H90.8843V43.3145H98.6968V46H87.7104ZM111.27 32.7432L106.534 46H103.116L98.3794 32.7432H101.7L104.751 42.6064H104.898L107.974 32.7432H111.27ZM114.322 46.1953C113.272 46.1953 112.405 45.3408 112.417 44.291C112.405 43.2656 113.272 42.4233 114.322 42.4111C115.335 42.4233 116.202 43.2656 116.202 44.291C116.202 45.3408 115.335 46.1953 114.322 46.1953ZM125.235 46.2441C121.707 46.2441 119.107 44.1323 119.009 41.2148H122.11C122.208 42.6431 123.562 43.6685 125.235 43.6807C127.212 43.6685 128.641 42.2402 128.628 40.2871C128.641 38.2607 127.176 36.8325 125.137 36.8203C123.758 36.8081 122.757 37.2964 122.208 38.334H119.253L120.328 28.3242H130.777V30.9854H122.94L122.403 35.6729H122.574C123.257 34.9038 124.539 34.3423 125.992 34.3301C129.275 34.3423 131.717 36.7837 131.705 40.1895C131.717 43.7173 129.056 46.2441 125.235 46.2441Z" fill="#FFB4C2"/>
<defs>
<filter id="filter0_d_262_510" x="34.6" y="58.85" width="150.8" height="150.8" filterUnits="userSpaceOnUse" color-interpolation-filters="sRGB">
<feFlood flood-opacity="0" result="BackgroundImageFix"/>
<feColorMatrix in="SourceAlpha" type="matrix" values="0 0 0 0 0 0 0 0 0 0 0 0 0 0 0 0 0 0 127 0" result="hardAlpha"/>
<feOffset dy="10"/>
<feGaussianBlur stdDeviation="6.7"/>
<feComposite in2="hardAlpha" operator="out"/>
<feColorMatrix type="matrix" values="0 0 0 0 0.901389 0 0 0 0 0.0838789 0 0 0 0 0.242426 0 0 0 1 0"/>
<feBlend mode="normal" in2="BackgroundImageFix" result="effect1_dropShadow_262_510"/>
<feBlend mode="normal" in="SourceGraphic" in2="effect1_dropShadow_262_510" result="shape"/>
</filter>
<linearGradient id="paint0_linear_262_510" x1="-0.249999" y1="8.2748e-07" x2="219.75" y2="220" gradientUnits="userSpaceOnUse">
<stop stop-color="#FF7E97"/>
<stop offset="1" stop-color="#F44F6F"/>
</linearGradient>
<linearGradient id="paint1_linear_262_510" x1="110" y1="62.25" x2="110" y2="186.25" gradientUnits="userSpaceOnUse">
<stop stop-color="#F9FBFA"/>
<stop offset="1" stop-color="#E5E5FF"/>
</linearGradient>
</defs>
</svg>
