<svg width="735" height="209" viewBox="0 0 735 209" fill="none" xmlns="http://www.w3.org/2000/svg">
<path d="M101.2 6.79999C105.067 3.46666 109.733 1.66666 115.2 1.39999C120.667 0.999996 125.667 2.06666 130.2 4.6C134.733 7 138.4 10.5333 141.2 15.2C144.133 19.8667 145.267 24.7333 144.6 29.8C143.533 24.8667 141.6 20.2 138.8 15.8C136.133 11.4 133 8.19999 129.4 6.19999C125.667 4.33332 121.2 3.53332 116 3.8C110.933 3.93333 106 4.93333 101.2 6.79999ZM62.8 22C64.2667 18.1333 66.8667 14.8 70.6 12C74.4667 9.19999 78.4667 7.86666 82.6 7.99999C86.7333 7.99999 90.6667 9.39999 94.4 12.2C98.1333 15 100.667 18.3333 102 22.2C99.4667 19 96.4 16.6667 92.8 15.2C89.2 13.6 85.8 12.8 82.6 12.8C79.2667 12.6667 75.8 13.4 72.2 15C68.6 16.4667 65.4667 18.8 62.8 22ZM105.2 23C108 20.8667 111.4 19.5333 115.4 19C119.4 18.4667 122.933 19.1333 126 21C128.933 22.8667 131.133 25.7333 132.6 29.6C134.067 33.3333 134.467 36.8667 133.8 40.2C133.267 36.7333 132 33.7333 130 31.2C128 28.6667 125.8 26.6667 123.4 25.2C121 23.7333 118.2 22.7333 115 22.2C111.8 21.6667 108.533 21.9333 105.2 23ZM29.4 43.4C28.4667 39.6667 28.6667 35.7333 30 31.6C31.4667 27.3333 33.8 24.1333 37 22C40.2 19.7333 44 18.7333 48.4 19C52.8 19.2667 56.6 20.4667 59.8 22.6C56.0667 21.6667 52.4 21.5333 48.8 22.2C45.3333 22.8667 42.3333 24.0667 39.8 25.8C37.1333 27.5333 34.8 29.9333 32.8 33C30.9333 36.0667 29.8 39.5333 29.4 43.4ZM9.2 67.8C5.6 64.8667 3.33333 60.9333 2.4 56C1.33333 50.9333 1.6 46.2 3.2 41.8C4.8 37.2667 7.6 33.4 11.6 30.2C15.4667 27 19.8 25.4 24.6 25.4C20.0667 27.1333 16 29.5333 12.4 32.6C8.8 35.5333 6.33333 38.8 5 42.4C3.8 46 3.6 50.1333 4.4 54.8C5.2 59.4667 6.8 63.8 9.2 67.8ZM26 75.6C23.0667 74.4 20.5333 72.3333 18.4 69.4C16.4 66.3333 15.4667 63.2667 15.6 60.2C15.8667 57.1333 17.2 54.2667 19.6 51.6C22.1333 48.8 24.8667 47 27.8 46.2C25.2667 48.0667 23.4 50.3333 22.2 53C21.1333 55.5333 20.5333 58.0667 20.4 60.6C20.2667 63 20.6 65.6 21.4 68.4C22.2 71.0667 23.7333 73.4667 26 75.6ZM70.6 65.6L71 65C70.3333 64.2 69.8 63.4 69.4 62.6C70.0667 63.2667 70.8 63.8 71.6 64.2C74.1333 61.2667 77.4 59.0667 81.4 57.6C85.5333 56.1333 89.4667 55.8667 93.2 56.8C96.1333 57.6 98.8667 59.1333 101.4 61.4C101.133 60.8667 100.867 60.3333 100.6 59.8C102.733 62.3333 105.2 64.1333 108 65.2C110.8 66.2667 113.533 66.8 116.2 66.8C118.867 66.8 121.6 66.2667 124.4 65.2C127.2 64.1333 129.667 62.3333 131.8 59.8C130.733 62.8667 128.667 65.6 125.6 68C122.667 70.4 119.533 71.6 116.2 71.6C112.6 71.6 109.2 70.1333 106 67.2C107.467 70 108.333 72.8 108.6 75.6C107.267 72.6667 105.467 70.1333 103.2 68C100.933 65.7333 98.5333 64.0667 96 63C94.8 65.1333 93.1333 67.0667 91 68.8C89 70.4 86.8667 71.3333 84.6 71.6C82.2 72 79.7333 71.5333 77.2 70.2C74.8 68.8667 72.8 67.2 71.2 65.2C71.0667 65.3333 70.8667 65.4667 70.6 65.6ZM92 61.4C89.0667 60.7333 85.8 60.6 82.2 61C78.7333 61.4 75.4 62.6 72.2 64.6C74.0667 65.8 76 66.5333 78 66.8C80.1333 67.0667 82.1333 67.1333 84 67C85.8667 66.7333 87.7333 66.2667 89.6 65.6C91.4667 64.8 93.1333 63.7333 94.6 62.4C93.8 62 92.9333 61.6667 92 61.4ZM111.8 76.2C113.533 74.3333 115.867 72.9333 118.8 72C121.867 71.0667 124.667 71.0667 127.2 72C129.6 73.0667 131.467 75 132.8 77.8C134.267 80.6 134.933 83.3333 134.8 86C134 83.4667 132.667 81.4667 130.8 80C129.067 78.4 127.2 77.2 125.2 76.4C123.333 75.6 121.2 75.0667 118.8 74.8C116.4 74.5333 114.067 75 111.8 76.2ZM18.8 102.4C15.7333 102.267 12.9333 101.133 10.4 99C7.73333 96.7333 5.93333 94.1333 5 91.2C4.06667 88.2667 4.06667 85.2 5 82C5.93333 78.6667 7.6 76.1333 10 74.4C8.4 76.9333 7.33333 79.6667 6.8 82.6C6.13333 85.5333 6.2 88.2 7 90.6C7.66667 93 9.06667 95.2667 11.2 97.4C13.3333 99.5333 15.8667 101.2 18.8 102.4ZM49.6 98.2C46.9333 99.8 43.7333 100.533 40 100.4C36.2667 100.267 33.2667 99.1333 31 97C28.6 95 27.0667 92.2 26.4 88.6C25.7333 84.8667 26 81.5333 27.2 78.6C27.0667 81.8 27.6667 84.6667 29 87.2C30.4667 89.7333 32.1333 91.8 34 93.4C36 95 38.3333 96.3333 41 97.4C43.6667 98.4667 46.5333 98.7333 49.6 98.2ZM137.2 88C140.533 88.2667 143.8 89.5333 147 91.8C150.333 94.0667 152.467 96.8667 153.4 100.2C154.467 103.533 154.267 107.067 152.8 110.8C151.333 114.4 149.2 117.2 146.4 119.2C148.267 116.4 149.333 113.4 149.6 110.2C149.867 107 149.6 104.133 148.8 101.6C148 98.9333 146.6 96.4 144.6 94C142.733 91.4667 140.267 89.4667 137.2 88ZM159.6 97C163.467 98.8667 166.4 101.867 168.4 106C170.533 110 171.4 114.2 171 118.6C170.733 122.867 169.2 126.867 166.4 130.6C163.733 134.2 160.333 136.6 156.2 137.8C159.667 135.267 162.6 132.267 165 128.8C167.4 125.2 168.8 121.733 169.2 118.4C169.467 114.933 168.667 111.267 166.8 107.4C165.067 103.533 162.667 100.067 159.6 97ZM25.2 117C26.5333 113.267 29 110.067 32.6 107.4C36.2 104.733 40 103.467 44 103.6C46.2667 103.6 48.5333 104.133 50.8 105.2C53.2 106.133 55.2667 107.467 57 109.2C54.6 106.133 53.1333 102.867 52.6 99.4C54.6 103 57.1333 105.867 60.2 108C63.4 110.133 66.6 111.533 69.8 112.2C72.6 111.133 75.1333 111 77.4 111.8C77.8 111.933 78.2 112.133 78.6 112.4C80.7333 112 82.8 111.4 84.8 110.6C86.8 109.667 88.7333 108.467 90.6 107C90.0667 107.933 89.4667 108.8 88.8 109.6C90.4 108.667 92 108.133 93.6 108C92 108.8 90.8667 109.933 90.2 111.4C89.6667 112.867 89.2 114.267 88.8 115.6C88.4 117.067 88.0667 118.6 87.8 120.2C87.6667 121.667 88.1333 123.133 89.2 124.6C87.7333 123.667 86.4 122.2 85.2 120.2C84 118.067 83.6667 116.133 84.2 114.4C84.3333 114 84.4667 113.6 84.6 113.2C83.8 113.733 82.8667 114.267 81.8 114.8C84.4667 117.733 85.8667 121.133 86 125C85.2 122.733 83.9333 121 82.2 119.8C80.4667 118.467 78.6667 117.4 76.8 116.6C74 117.267 71.3333 117.4 68.8 117C67.7333 116.733 66.6667 116.333 65.6 115.8C64.5333 116.2 63.5333 116.667 62.6 117.2C63.1333 116.533 63.7333 115.933 64.4 115.4C62.6667 114.467 61.0667 113.333 59.6 112C60.9333 113.6 61.9333 115.333 62.6 117.2C60.0667 114.267 57.0667 112.067 53.6 110.6C50.2667 109.133 47.0667 108.4 44 108.4C40.8 108.267 37.4667 108.933 34 110.4C30.6667 111.867 27.7333 114.067 25.2 117ZM34.4 144.6C31.3333 144.867 28.1333 144.133 24.8 142.4C21.4667 140.667 19.1333 138.333 17.8 135.4C16.4667 132.6 16.2667 129.4 17.2 125.8C18.1333 122.2 19.7333 119.267 22 117C20.6667 119.8 20.0667 122.667 20.2 125.6C20.4667 128.533 21.1333 131.2 22.2 133.6C23.2667 135.867 24.8 138.067 26.8 140.2C28.8 142.2 31.3333 143.667 34.4 144.6ZM145.8 122.4C147.4 124.533 148.4 127.2 148.8 130.4C149.2 133.6 148.733 136.267 147.4 138.4C145.933 140.667 143.667 142.267 140.6 143.2C137.533 144.133 134.667 144.267 132 143.6C134.667 143.333 136.933 142.467 138.8 141C140.667 139.4 142.133 137.667 143.2 135.8C144.4 134.067 145.333 132.067 146 129.8C146.667 127.4 146.6 124.933 145.8 122.4ZM129.4 145.6C129.533 148.133 128.933 150.8 127.6 153.6C126.4 156.4 124.6 158.267 122.2 159.2C119.933 160.267 117.333 160.333 114.4 159.4C111.467 158.467 109.133 157.067 107.4 155.2C109.667 156.4 111.933 156.867 114.2 156.6C116.467 156.2 118.533 155.6 120.4 154.8C122.267 154 124.067 152.867 125.8 151.4C127.533 149.933 128.733 148 129.4 145.6ZM66.4 156.8C64.4 159.333 61.5333 161.2 57.8 162.4C54.2 163.733 50.8667 163.867 47.8 162.8C44.7333 161.6 42.2 159.4 40.2 156.2C38.2 153 37.1333 149.733 37 146.4C38.2 149.467 39.9333 152 42.2 154C44.6 155.867 47 157.267 49.4 158.2C51.9333 159 54.6667 159.4 57.6 159.4C60.6667 159.4 63.6 158.533 66.4 156.8ZM104.2 156C103.133 159.467 100.933 162.533 97.6 165.2C94.4 167.867 91 169.267 87.4 169.4C83.8 169.533 80.2667 168.333 76.8 165.8C73.4667 163.4 71.0667 160.533 69.6 157.2C72.1333 159.867 74.9333 161.8 78 163C81.2 164.2 84.2667 164.733 87.2 164.6C90.1333 164.467 93.1333 163.667 96.2 162.2C99.4 160.867 102.067 158.8 104.2 156ZM88.2 173C85.4 177.667 81.2667 181 75.8 183C70.4667 185 65.1333 185.533 59.8 184.6C54.4667 183.667 49.6 181.267 45.2 177.4C40.8 173.667 38.1333 169.133 37.2 163.8C40 168.467 43.4667 172.533 47.6 176C51.7333 179.6 55.9333 181.8 60.2 182.6C64.4667 183.4 69.1333 182.867 74.2 181C79.4 179.133 84.0667 176.467 88.2 173ZM210.453 41.2C212.853 36.9333 216.453 33.8667 221.253 32C226.053 30 230.853 29.4 235.653 30.2C240.453 31 244.853 33.1333 248.853 36.6C252.853 39.9333 255.32 44 256.253 48.8C253.72 44.5333 250.586 40.8667 246.853 37.8C243.12 34.7333 239.32 32.8667 235.453 32.2C231.586 31.5333 227.386 32.0667 222.853 33.8C218.32 35.5333 214.186 38 210.453 41.2ZM187.853 61.2C188.653 57.3333 190.653 53.8667 193.853 50.8C197.053 47.6 200.653 45.7333 204.653 45.2C208.52 44.6667 212.386 45.5333 216.253 47.8C220.253 49.9333 223.12 52.7333 224.853 56.2C221.92 53.5333 218.653 51.7333 215.053 50.8C211.586 49.8667 208.32 49.6 205.253 50C202.053 50.4 198.853 51.5333 195.653 53.4C192.586 55.2667 189.986 57.8667 187.853 61.2ZM228.053 56.6C230.72 53.8 234.186 51.8667 238.453 50.8C242.72 49.7333 246.586 49.9333 250.053 51.4C253.52 52.8667 256.32 55.5333 258.453 59.4C260.72 63.1333 261.786 66.9333 261.653 70.8C260.453 67.0667 258.586 63.9333 256.053 61.4C253.653 58.8667 251.053 57 248.253 55.8C245.32 54.6 242.053 54 238.453 54C234.986 54 231.52 54.8667 228.053 56.6ZM167.853 78.8C166.786 76.5333 166.386 73.9333 166.653 71C167.053 67.9333 168.12 65.5333 169.853 63.8C171.72 62.0667 174.12 61.1333 177.053 61C180.12 60.8667 182.786 61.4 185.053 62.6C182.52 62.3333 180.253 62.7333 178.253 63.8C176.253 64.7333 174.586 65.8667 173.253 67.2C171.786 68.6667 170.453 70.3333 169.253 72.2C168.186 74.0667 167.72 76.2667 167.853 78.8ZM263.653 73.2C267.253 73.4667 270.72 74.8667 274.053 77.4C277.386 79.8 279.586 82.7333 280.653 86.2C281.586 89.6667 281.253 93.3333 279.653 97.2C278.053 101.067 275.786 104.067 272.853 106.2C274.986 103.267 276.186 100.133 276.453 96.8C276.853 93.4667 276.72 90.4 276.053 87.6C275.253 84.8 273.786 82.0667 271.653 79.4C269.653 76.7333 266.986 74.6667 263.653 73.2ZM162.453 113.6C159.52 112 156.986 109.533 154.853 106.2C152.853 102.867 152.053 99.5333 152.453 96.2C152.853 92.8667 154.453 89.8 157.253 87C160.053 84.2 163.12 82.4 166.453 81.6C163.653 83.4667 161.52 85.8 160.053 88.6C158.586 91.4 157.653 94.1333 157.253 96.8C156.986 99.4667 157.186 102.333 157.853 105.4C158.653 108.333 160.186 111.067 162.453 113.6ZM224.653 83.8C225.053 86.0667 224.786 88.5333 223.853 91.2C223.053 93.8667 221.653 95.7333 219.653 96.8C217.653 97.8667 215.32 98.1333 212.653 97.6C209.986 96.9333 207.786 95.8667 206.053 94.4C208.186 95.2 210.186 95.3333 212.053 94.8C214.053 94.2667 215.786 93.5333 217.253 92.6C218.853 91.6667 220.386 90.5333 221.853 89.2C223.32 87.8667 224.253 86.0667 224.653 83.8ZM149.053 127.6C144.786 126 141.453 123.067 139.053 118.8C136.52 114.533 135.253 110.133 135.253 105.6C135.386 101.067 136.786 96.7333 139.453 92.6C141.986 88.4667 145.386 85.6667 149.653 84.2C146.186 87 143.32 90.4 141.053 94.4C138.653 98.2667 137.386 102 137.253 105.6C137.253 109.333 138.386 113.2 140.653 117.2C142.786 121.067 145.586 124.533 149.053 127.6ZM216.853 132C216.32 131.467 215.786 130.867 215.253 130.2C214.72 130.733 214.186 131.2 213.653 131.6C214.053 130.933 214.453 130.333 214.853 129.8C212.853 127.267 211.453 124.267 210.653 120.8C209.986 117.333 210.253 114.133 211.453 111.2C212.12 109.467 213.253 107.8 214.853 106.2C213.786 104.467 212.453 102.867 210.853 101.4C209.386 99.9333 207.653 98.6667 205.653 97.6C210.186 98.1333 214.186 100.2 217.653 103.8C221.52 101.133 225.52 99.8667 229.653 100C227.653 100.667 225.853 101.6 224.253 102.8C222.653 103.867 221.186 105.133 219.853 106.6C221.053 108.2 221.853 109.867 222.253 111.6C222.92 114.8 222.586 118.067 221.253 121.4C220.053 124.733 218.253 127.533 215.853 129.8C216.12 130.467 216.453 131.2 216.853 132ZM215.853 113C215.053 115.267 214.52 117.8 214.253 120.6C214.12 123.267 214.52 125.933 215.453 128.6C216.786 126.067 217.586 123.4 217.853 120.6C218.12 117.8 217.986 115.2 217.453 112.8C217.32 112.133 217.12 111.467 216.853 110.8C216.586 111.6 216.253 112.333 215.853 113ZM180.453 149.6C176.586 150.133 172.586 149.467 168.453 147.6C164.453 145.733 161.52 143.133 159.653 139.8C157.786 136.333 157.186 132.4 157.853 128C158.52 123.6 160.12 119.933 162.653 117C161.32 120.6 160.786 124.267 161.053 128C161.453 131.6 162.453 134.733 164.053 137.4C165.52 140.2 167.653 142.733 170.453 145C173.386 147.267 176.72 148.8 180.453 149.6ZM287.453 118.8C290.92 122.8 292.653 127.667 292.653 133.4C292.786 139 291.52 144.067 288.853 148.6C286.32 153.133 282.586 156.8 277.653 159.6C272.72 162.4 267.653 163.333 262.453 162.4C267.653 161.467 272.52 159.733 277.053 157.2C281.72 154.533 285.12 151.333 287.253 147.6C289.253 144 290.253 139.533 290.253 134.2C290.253 128.867 289.32 123.733 287.453 118.8ZM271.453 124.8C273.32 127.733 274.32 131.2 274.453 135.2C274.586 139.067 273.653 142.4 271.653 145.2C269.52 148 266.52 149.933 262.653 151C258.92 152.067 255.386 152.133 252.053 151.2C255.52 150.933 258.586 149.933 261.253 148.2C263.92 146.467 266.053 144.533 267.653 142.4C269.386 140.133 270.653 137.467 271.453 134.4C272.253 131.333 272.253 128.133 271.453 124.8ZM182.853 167.2C177.653 169.2 172.32 169.2 166.853 167.2C161.386 165.333 156.853 162.333 153.253 158.2C149.653 154.067 147.386 149.133 146.453 143.4C145.52 137.533 146.386 132.267 149.053 127.6C148.12 132.933 148.12 138.333 149.053 143.8C149.986 149.133 151.92 153.467 154.853 156.8C157.653 160.133 161.653 162.733 166.853 164.6C172.053 166.467 177.386 167.333 182.853 167.2ZM221.653 158C219.653 161.467 216.52 164.2 212.253 166.2C208.12 168.333 204.053 169.067 200.053 168.4C196.053 167.733 192.453 165.667 189.253 162.2C186.053 158.867 184.053 155.2 183.253 151.2C185.386 154.667 188.053 157.467 191.253 159.6C194.453 161.733 197.653 163.067 200.853 163.6C204.053 164.267 207.52 164.133 211.253 163.2C215.12 162.267 218.586 160.533 221.653 158ZM249.253 152.6C248.853 155.133 247.72 157.667 245.853 160.2C243.986 162.733 241.72 164.267 239.053 164.8C236.52 165.333 233.853 164.8 231.053 163.2C228.386 161.733 226.32 159.933 224.853 157.8C226.986 159.4 229.186 160.267 231.453 160.4C233.853 160.667 236.053 160.533 238.053 160C240.186 159.6 242.253 158.867 244.253 157.8C246.386 156.6 248.053 154.867 249.253 152.6ZM278.773 64.4C278.107 59.7333 279.04 55.2 281.573 50.8C284.107 46.4 287.507 43.1333 291.773 41C295.907 38.7333 300.507 37.7333 305.573 38C310.64 38.1333 314.907 39.8 318.373 43C313.973 41.2667 309.373 40.3333 304.573 40.2C299.907 40.0667 295.907 40.8667 292.573 42.6C289.24 44.4667 286.307 47.4 283.773 51.4C281.373 55.4 279.707 59.7333 278.773 64.4ZM344.573 65C344.973 61.8 346.373 58.7333 348.773 55.8C351.173 52.7333 353.973 50.8 357.173 50C360.373 49.3333 363.707 49.8 367.173 51.4C370.64 53 373.24 55.2 374.973 58C372.307 56 369.44 54.8 366.373 54.4C363.44 54 360.707 54.1333 358.173 54.8C355.64 55.3333 353.107 56.4667 350.573 58.2C348.04 59.8 346.04 62.0667 344.573 65ZM293.773 68.4C293.64 65.4667 294.373 62.5333 295.973 59.6C297.707 56.5333 299.907 54.4667 302.573 53.4C305.24 52.2 308.173 52.1333 311.373 53.2C314.707 54.2667 317.307 55.8667 319.173 58C316.64 56.6667 314.04 56.0667 311.373 56.2C308.84 56.3333 306.507 56.8667 304.373 57.8C302.24 58.6 300.173 59.8667 298.173 61.6C296.173 63.3333 294.707 65.6 293.773 68.4ZM322.373 58C323.973 56.4 326.107 55.2 328.773 54.4C331.44 53.4667 333.773 53.4667 335.773 54.4C337.907 55.3333 339.507 57.0667 340.573 59.6C341.64 62.1333 342.107 64.5333 341.973 66.8C341.307 64.6667 340.173 63 338.573 61.8C337.107 60.4667 335.507 59.4667 333.773 58.8C332.173 58 330.373 57.4667 328.373 57.2C326.373 56.8 324.373 57.0667 322.373 58ZM393.573 54C398.373 56.2667 401.973 60 404.373 65.2C406.907 70.4 407.907 75.6667 407.373 81C406.84 86.3333 404.84 91.3333 401.373 96C398.04 100.533 393.84 103.467 388.773 104.8C393.173 101.733 396.907 98.0667 399.973 93.8C403.173 89.4 404.973 85.0667 405.373 80.8C405.773 76.5333 404.84 72 402.573 67.2C400.307 62.2667 397.307 57.8667 393.573 54ZM379.773 62.8C382.573 63.8667 385.107 65.8 387.373 68.6C389.64 71.2667 390.773 74.1333 390.773 77.2C390.773 80.2667 389.64 83.2 387.373 86C385.107 88.6667 382.573 90.5333 379.773 91.6C382.04 89.6 383.64 87.3333 384.573 84.8C385.507 82.1333 385.973 79.6 385.973 77.2C385.973 74.8 385.507 72.3333 384.573 69.8C383.64 67.1333 382.04 64.8 379.773 62.8ZM278.773 115.4C274.24 113.8 270.707 110.8 268.173 106.4C265.507 102 264.173 97.4 264.173 92.6C264.173 87.9333 265.507 83.4 268.173 79C270.707 74.6 274.24 71.6 278.773 70C275.173 73.0667 272.173 76.6667 269.773 80.8C267.373 84.9333 266.173 88.8667 266.173 92.6C266.173 96.4667 267.373 100.467 269.773 104.6C272.173 108.733 275.173 112.333 278.773 115.4ZM293.773 97C291.24 96.0667 288.907 94.4 286.773 92C284.773 89.6 283.773 87 283.773 84.2C283.773 81.5333 284.773 79 286.773 76.6C288.907 74.2 291.24 72.5333 293.773 71.6C291.773 73.3333 290.373 75.3333 289.573 77.6C288.907 79.8667 288.573 82.0667 288.573 84.2C288.573 86.4667 288.907 88.7333 289.573 91C290.373 93.2667 291.773 95.2667 293.773 97ZM377.373 94C376.44 96.6667 374.64 99.0667 371.973 101.2C369.44 103.333 366.773 104.4 363.973 104.4C361.173 104.4 358.44 103.333 355.773 101.2C353.24 99.0667 351.507 96.6667 350.573 94C352.307 96.1333 354.373 97.6 356.773 98.4C359.307 99.2 361.707 99.6 363.973 99.6C366.24 99.6 368.573 99.2 370.973 98.4C373.373 97.6 375.507 96.1333 377.373 94ZM347.173 94.4C349.44 96.4 351.107 99.1333 352.173 102.6C353.24 105.933 353.24 109 352.173 111.8C350.973 114.6 348.84 116.867 345.773 118.6C342.707 120.2 339.64 121 336.573 121C339.373 120.067 341.707 118.6 343.573 116.6C345.44 114.467 346.773 112.267 347.573 110C348.507 107.733 349.04 105.267 349.173 102.6C349.307 99.8 348.64 97.0667 347.173 94.4ZM293.773 125.8C291.24 124.867 288.907 123.2 286.773 120.8C284.773 118.267 283.773 115.667 283.773 113C283.773 110.333 284.773 107.8 286.773 105.4C288.907 102.867 291.24 101.133 293.773 100.2C291.773 101.933 290.373 104 289.573 106.4C288.907 108.667 288.573 110.867 288.573 113C288.573 115.133 288.907 117.4 289.573 119.8C290.373 122.067 291.773 124.067 293.773 125.8ZM336.573 124.2C338.973 125 341.173 126.6 343.173 129C345.173 131.267 346.173 133.6 346.173 136C346.173 138.533 345.173 141 343.173 143.4C341.173 145.667 338.973 147.2 336.573 148C338.44 146.4 339.707 144.533 340.373 142.4C341.04 140.133 341.373 138 341.373 136C341.373 134 341.04 131.933 340.373 129.8C339.707 127.667 338.44 125.8 336.573 124.2ZM305.773 156C302.573 156.267 299.307 155.533 295.973 153.8C292.773 152.067 290.573 149.8 289.373 147C288.173 144.2 288.04 141.067 288.973 137.6C289.907 134 291.507 131.133 293.773 129C292.44 131.667 291.84 134.467 291.973 137.4C292.24 140.2 292.84 142.733 293.773 145C294.84 147.267 296.307 149.467 298.173 151.6C300.173 153.6 302.707 155.067 305.773 156ZM351.573 150.4C352.107 155.067 351.04 159.533 348.373 163.8C345.707 168.2 342.24 171.533 337.973 173.8C333.707 175.933 329.04 176.8 323.973 176.4C318.907 176 314.64 174.2 311.173 171C315.573 172.867 320.107 173.933 324.773 174.2C329.573 174.467 333.707 173.733 337.173 172C340.507 170.267 343.44 167.4 345.973 163.4C348.64 159.4 350.507 155.067 351.573 150.4ZM336.573 151.2C336.04 154.133 334.64 156.933 332.373 159.6C330.107 162.267 327.507 163.8 324.573 164.2C321.64 164.733 318.64 164.133 315.573 162.4C312.507 160.667 310.24 158.533 308.773 156C311.04 157.867 313.507 159 316.173 159.4C318.84 159.933 321.373 160 323.773 159.6C326.04 159.2 328.373 158.333 330.773 157C333.173 155.667 335.107 153.733 336.573 151.2ZM382.289 64.4C381.622 59.7333 382.556 55.2 385.089 50.8C387.622 46.4 391.022 43.1333 395.289 41C399.422 38.7333 404.022 37.7333 409.089 38C414.156 38.1333 418.422 39.8 421.889 43C417.489 41.2667 412.889 40.3333 408.089 40.2C403.422 40.0667 399.422 40.8667 396.089 42.6C392.756 44.4667 389.822 47.4 387.289 51.4C384.889 55.4 383.222 59.7333 382.289 64.4ZM448.089 65C448.489 61.8 449.889 58.7333 452.289 55.8C454.689 52.7333 457.489 50.8 460.689 50C463.889 49.3333 467.222 49.8 470.689 51.4C474.156 53 476.756 55.2 478.489 58C475.822 56 472.956 54.8 469.889 54.4C466.956 54 464.222 54.1333 461.689 54.8C459.156 55.3333 456.622 56.4667 454.089 58.2C451.556 59.8 449.556 62.0667 448.089 65ZM397.289 68.4C397.156 65.4667 397.889 62.5333 399.489 59.6C401.222 56.5333 403.422 54.4667 406.089 53.4C408.756 52.2 411.689 52.1333 414.889 53.2C418.222 54.2667 420.822 55.8667 422.689 58C420.156 56.6667 417.556 56.0667 414.889 56.2C412.356 56.3333 410.022 56.8667 407.889 57.8C405.756 58.6 403.689 59.8667 401.689 61.6C399.689 63.3333 398.222 65.6 397.289 68.4ZM425.889 58C427.489 56.4 429.622 55.2 432.289 54.4C434.956 53.4667 437.289 53.4667 439.289 54.4C441.422 55.3333 443.022 57.0667 444.089 59.6C445.156 62.1333 445.622 64.5333 445.489 66.8C444.822 64.6667 443.689 63 442.089 61.8C440.622 60.4667 439.022 59.4667 437.289 58.8C435.689 58 433.889 57.4667 431.889 57.2C429.889 56.8 427.889 57.0667 425.889 58ZM497.089 54C501.889 56.2667 505.489 60 507.889 65.2C510.422 70.4 511.422 75.6667 510.889 81C510.356 86.3333 508.356 91.3333 504.889 96C501.556 100.533 497.356 103.467 492.289 104.8C496.689 101.733 500.422 98.0667 503.489 93.8C506.689 89.4 508.489 85.0667 508.889 80.8C509.289 76.5333 508.356 72 506.089 67.2C503.822 62.2667 500.822 57.8667 497.089 54ZM483.289 62.8C486.089 63.8667 488.622 65.8 490.889 68.6C493.156 71.2667 494.289 74.1333 494.289 77.2C494.289 80.2667 493.156 83.2 490.889 86C488.622 88.6667 486.089 90.5333 483.289 91.6C485.556 89.6 487.156 87.3333 488.089 84.8C489.022 82.1333 489.489 79.6 489.489 77.2C489.489 74.8 489.022 72.3333 488.089 69.8C487.156 67.1333 485.556 64.8 483.289 62.8ZM382.289 115.4C377.756 113.8 374.222 110.8 371.689 106.4C369.022 102 367.689 97.4 367.689 92.6C367.689 87.9333 369.022 83.4 371.689 79C374.222 74.6 377.756 71.6 382.289 70C378.689 73.0667 375.689 76.6667 373.289 80.8C370.889 84.9333 369.689 88.8667 369.689 92.6C369.689 96.4667 370.889 100.467 373.289 104.6C375.689 108.733 378.689 112.333 382.289 115.4ZM397.289 97C394.756 96.0667 392.422 94.4 390.289 92C388.289 89.6 387.289 87 387.289 84.2C387.289 81.5333 388.289 79 390.289 76.6C392.422 74.2 394.756 72.5333 397.289 71.6C395.289 73.3333 393.889 75.3333 393.089 77.6C392.422 79.8667 392.089 82.0667 392.089 84.2C392.089 86.4667 392.422 88.7333 393.089 91C393.889 93.2667 395.289 95.2667 397.289 97ZM480.889 94C479.956 96.6667 478.156 99.0667 475.489 101.2C472.956 103.333 470.289 104.4 467.489 104.4C464.689 104.4 461.956 103.333 459.289 101.2C456.756 99.0667 455.022 96.6667 454.089 94C455.822 96.1333 457.889 97.6 460.289 98.4C462.822 99.2 465.222 99.6 467.489 99.6C469.756 99.6 472.089 99.2 474.489 98.4C476.889 97.6 479.022 96.1333 480.889 94ZM450.689 94.4C452.956 96.4 454.622 99.1333 455.689 102.6C456.756 105.933 456.756 109 455.689 111.8C454.489 114.6 452.356 116.867 449.289 118.6C446.222 120.2 443.156 121 440.089 121C442.889 120.067 445.222 118.6 447.089 116.6C448.956 114.467 450.289 112.267 451.089 110C452.022 107.733 452.556 105.267 452.689 102.6C452.822 99.8 452.156 97.0667 450.689 94.4ZM397.289 125.8C394.756 124.867 392.422 123.2 390.289 120.8C388.289 118.267 387.289 115.667 387.289 113C387.289 110.333 388.289 107.8 390.289 105.4C392.422 102.867 394.756 101.133 397.289 100.2C395.289 101.933 393.889 104 393.089 106.4C392.422 108.667 392.089 110.867 392.089 113C392.089 115.133 392.422 117.4 393.089 119.8C393.889 122.067 395.289 124.067 397.289 125.8ZM440.089 124.2C442.489 125 444.689 126.6 446.689 129C448.689 131.267 449.689 133.6 449.689 136C449.689 138.533 448.689 141 446.689 143.4C444.689 145.667 442.489 147.2 440.089 148C441.956 146.4 443.222 144.533 443.889 142.4C444.556 140.133 444.889 138 444.889 136C444.889 134 444.556 131.933 443.889 129.8C443.222 127.667 441.956 125.8 440.089 124.2ZM409.289 156C406.089 156.267 402.822 155.533 399.489 153.8C396.289 152.067 394.089 149.8 392.889 147C391.689 144.2 391.556 141.067 392.489 137.6C393.422 134 395.022 131.133 397.289 129C395.956 131.667 395.356 134.467 395.489 137.4C395.756 140.2 396.356 142.733 397.289 145C398.356 147.267 399.822 149.467 401.689 151.6C403.689 153.6 406.222 155.067 409.289 156ZM455.089 150.4C455.622 155.067 454.556 159.533 451.889 163.8C449.222 168.2 445.756 171.533 441.489 173.8C437.222 175.933 432.556 176.8 427.489 176.4C422.422 176 418.156 174.2 414.689 171C419.089 172.867 423.622 173.933 428.289 174.2C433.089 174.467 437.222 173.733 440.689 172C444.022 170.267 446.956 167.4 449.489 163.4C452.156 159.4 454.022 155.067 455.089 150.4ZM440.089 151.2C439.556 154.133 438.156 156.933 435.889 159.6C433.622 162.267 431.022 163.8 428.089 164.2C425.156 164.733 422.156 164.133 419.089 162.4C416.022 160.667 413.756 158.533 412.289 156C414.556 157.867 417.022 159 419.689 159.4C422.356 159.933 424.889 160 427.289 159.6C429.556 159.2 431.889 158.333 434.289 157C436.689 155.667 438.622 153.733 440.089 151.2ZM498.805 43C500.538 39 503.405 35.9333 507.405 33.8C511.538 31.6667 515.805 30.7333 520.205 31C524.471 31.2667 528.471 32.7333 532.205 35.4C536.071 38.0667 538.605 41.4667 539.805 45.6C537.271 42.1333 534.205 39.2667 530.605 37C527.005 34.6 523.471 33.2667 520.005 33C516.538 32.7333 512.871 33.6 509.005 35.6C505.138 37.4667 501.738 39.9333 498.805 43ZM588.805 43C591.738 39.8 595.471 37.8667 600.005 37.2C604.671 36.5333 609.005 37.0667 613.005 38.8C617.005 40.5333 620.338 43.2667 623.005 47C625.805 50.7333 627.071 54.8 626.805 59.2C625.605 55.0667 623.671 51.2667 621.005 47.8C618.338 44.3333 615.405 41.9333 612.205 40.6C609.005 39.2667 605.271 38.8667 601.005 39.4C596.738 39.8 592.671 41 588.805 43ZM579.205 58C580.405 54.8 582.538 52.0667 585.605 49.8C588.671 47.4 591.938 46.2 595.405 46.2C598.738 46.2 601.938 47.4667 605.005 50C608.071 52.4 610.138 55.2 611.205 58.4C609.071 55.7333 606.538 53.8667 603.605 52.8C600.805 51.6 598.005 51 595.205 51C592.538 51 589.738 51.5333 586.805 52.6C583.871 53.6667 581.338 55.4667 579.205 58ZM496.005 63.8C496.005 61.8 496.605 59.6667 497.805 57.4C499.138 55.1333 500.805 53.6667 502.805 53C504.671 52.4667 506.738 52.8 509.005 54C511.405 55.0667 513.205 56.4 514.405 58C512.671 56.9333 510.938 56.5333 509.205 56.8C507.471 56.9333 505.805 57.2 504.205 57.6C502.605 58.1333 501.005 58.8667 499.405 59.8C497.938 60.6 496.805 61.9333 496.005 63.8ZM517.605 58C520.005 56.5333 522.871 55.7333 526.205 55.6C529.538 55.4667 532.338 56.2667 534.605 58C536.738 59.7333 538.138 62.2667 538.805 65.6C539.605 68.8 539.538 71.7333 538.605 74.4C538.605 71.6 537.871 69.1333 536.405 67C534.938 64.8667 533.338 63.1333 531.605 61.8C529.871 60.3333 527.805 59.2 525.405 58.4C523.005 57.6 520.405 57.4667 517.605 58ZM562.805 88C560.271 85.6 558.471 82.4667 557.405 78.6C556.471 74.7333 556.738 71.2667 558.205 68.2C559.538 65 561.938 62.4667 565.405 60.6C569.005 58.7333 572.538 57.8667 576.005 58C572.671 59.0667 569.871 60.7333 567.605 63C565.338 65.1333 563.671 67.4667 562.605 70C561.538 72.5333 560.871 75.4 560.605 78.6C560.471 81.8 561.205 84.9333 562.805 88ZM611.205 61.6C613.338 63.7333 614.871 66.5333 615.805 70C616.871 73.3333 616.805 76.4 615.605 79.2C614.405 82 612.205 84.2 609.005 85.8C605.938 87.4 602.871 88.1333 599.805 88C602.738 87.0667 605.138 85.6 607.005 83.6C608.871 81.6 610.271 79.4667 611.205 77.2C612.138 75.0667 612.671 72.6 612.805 69.8C613.071 67 612.538 64.2667 611.205 61.6ZM508.405 93.2C505.338 93.3333 502.205 92.6 499.005 91C495.938 89.2667 493.805 87 492.605 84.2C491.405 81.4 491.271 78.3333 492.205 75C493.271 71.5333 494.938 68.8 497.205 66.8C495.871 69.4667 495.271 72.2 495.405 75C495.538 77.6667 496.071 80.1333 497.005 82.4C497.938 84.5333 499.338 86.6667 501.205 88.8C503.071 90.8 505.471 92.2667 508.405 93.2ZM549.005 103C548.605 102.067 548.271 101 548.005 99.8C548.005 99.8 547.938 99.8667 547.805 100L548.005 99.6C547.871 98.2667 547.871 96.9333 548.005 95.6C548.271 94.1333 548.738 92.9333 549.405 92C549.271 90.4 548.938 88.7333 548.405 87C547.605 85.1333 546.538 83.2667 545.205 81.4C543.871 79.5333 542.071 78.2 539.805 77.4C542.338 77.4 544.938 78.1333 547.605 79.6C550.271 81.0667 552.005 83 552.805 85.4C553.338 86.7333 553.471 88.2 553.205 89.8C554.671 89.5333 556.138 89.5333 557.605 89.8C559.205 90.0667 560.538 90.4667 561.605 91C559.871 90.7333 558.338 91.0667 557.005 92C555.671 92.9333 554.471 93.8667 553.405 94.8C552.338 95.8667 551.271 97.0667 550.205 98.4C549.271 99.6 548.871 101.133 549.005 103ZM598.605 90.8C600.605 92.8 602.071 95.4 603.005 98.6C603.938 101.667 603.871 104.467 602.805 107C601.738 109.533 599.671 111.533 596.605 113C593.671 114.467 590.871 115.133 588.205 115C590.871 114.2 593.005 112.867 594.605 111C596.205 109.133 597.471 107.2 598.405 105.2C599.338 103.067 599.871 100.8 600.005 98.4C600.271 95.8667 599.805 93.3333 598.605 90.8ZM519.205 118.8C516.538 118.933 513.805 118.333 511.005 117C508.205 115.533 506.338 113.6 505.405 111.2C504.338 108.8 504.271 106.133 505.205 103.2C506.271 100.133 507.738 97.7333 509.605 96C508.405 98.4 507.938 100.733 508.205 103C508.471 105.267 509.005 107.4 509.805 109.4C510.605 111.267 511.738 113.133 513.205 115C514.671 116.733 516.671 118 519.205 118.8ZM513.805 144.4C509.538 144.533 505.538 143.267 501.805 140.6C498.071 137.933 495.405 134.667 493.805 130.8C492.071 126.8 491.538 122.533 492.205 118C492.871 113.467 494.805 109.733 498.005 106.8C496.005 110.667 494.738 114.733 494.205 119C493.805 123.133 494.271 126.8 495.605 130C496.938 133.067 499.271 135.933 502.605 138.6C505.938 141.133 509.671 143.067 513.805 144.4ZM587.005 118C589.005 119.867 590.471 122.4 591.405 125.6C592.338 128.667 592.271 131.467 591.205 134C590.138 136.533 588.071 138.533 585.005 140C582.071 141.467 579.271 142.133 576.605 142C579.138 141.2 581.205 139.867 582.805 138C584.538 136.133 585.871 134.2 586.805 132.2C587.605 130.2 588.138 127.933 588.405 125.4C588.671 122.867 588.205 120.4 587.005 118ZM531.205 147.2C528.005 147.467 524.738 146.667 521.405 144.8C518.071 142.933 515.738 140.533 514.405 137.6C513.205 134.533 513.071 131.2 514.005 127.6C515.071 123.867 516.805 120.933 519.205 118.8C517.738 121.6 517.071 124.533 517.205 127.6C517.338 130.533 517.871 133.2 518.805 135.6C519.871 138 521.405 140.333 523.405 142.6C525.538 144.733 528.138 146.267 531.205 147.2ZM597.005 132.4C600.205 135.467 602.138 139.4 602.805 144.2C603.471 148.867 602.938 153.2 601.205 157.2C599.338 161.333 596.471 164.733 592.605 167.4C588.738 170.2 584.605 171.467 580.205 171.2C584.471 170 588.338 168.067 591.805 165.4C595.405 162.733 597.871 159.733 599.205 156.4C600.671 153.2 601.138 149.4 600.605 145C600.205 140.6 599.005 136.4 597.005 132.4ZM575.205 145C577.338 146.867 578.871 149.467 579.805 152.8C580.738 156 580.671 158.933 579.605 161.6C578.405 164.133 576.271 166.133 573.205 167.6C570.271 169.2 567.405 169.933 564.605 169.8C567.271 169 569.471 167.6 571.205 165.6C572.938 163.733 574.271 161.733 575.205 159.6C576.005 157.6 576.538 155.333 576.805 152.8C577.071 150.133 576.538 147.533 575.205 145ZM521.005 182.4C518.205 180.133 516.138 177 514.805 173C513.605 169.133 513.605 165.467 514.805 162C516.005 158.667 518.338 155.867 521.805 153.6C525.271 151.333 528.805 150.2 532.405 150.2C529.071 151.4 526.271 153.267 524.005 155.8C521.871 158.333 520.271 160.933 519.205 163.6C518.271 166.4 517.871 169.467 518.005 172.8C518.138 176.133 519.138 179.333 521.005 182.4ZM563.205 172.8C564.405 176.133 564.471 179.8 563.405 183.8C562.471 187.8 560.671 190.933 558.005 193.2C555.205 195.467 551.738 196.6 547.605 196.6C543.471 196.733 539.871 195.867 536.805 194C540.271 194.667 543.605 194.533 546.805 193.6C550.005 192.667 552.738 191.267 555.005 189.4C557.138 187.667 559.005 185.333 560.605 182.4C562.338 179.467 563.205 176.267 563.205 172.8ZM521.605 209C517.605 209 513.871 207.6 510.405 204.8C507.071 202.133 504.738 198.933 503.405 195.2C502.071 191.467 501.805 187.467 502.605 183.2C503.538 178.933 505.538 175.533 508.605 173C506.605 176.467 505.271 180.133 504.605 184C503.938 188 504.138 191.533 505.205 194.6C506.405 197.533 508.471 200.333 511.405 203C514.471 205.667 517.871 207.667 521.605 209ZM533.605 194C532.271 195.067 530.471 195.867 528.205 196.4C526.071 196.933 524.271 196.733 522.805 195.8C521.338 195 520.338 193.467 519.805 191.2C519.405 189.067 519.405 187.133 519.805 185.4C519.938 187.133 520.605 188.467 521.805 189.4C523.005 190.333 524.205 191.133 525.405 191.8C526.471 192.6 527.671 193.267 529.005 193.8C530.471 194.467 532.005 194.533 533.605 194ZM604.755 113.8C605.288 108.333 607.555 103.6 611.555 99.6C615.688 95.6 620.421 92.9333 625.755 91.6C630.955 90.2667 636.288 90.4667 641.755 92.2C647.355 93.8 651.621 96.8667 654.555 101.4C650.155 98.2 645.355 95.8667 640.155 94.4C635.088 92.8 630.421 92.5333 626.155 93.6C622.021 94.6667 618.021 97.0667 614.155 100.8C610.288 104.533 607.155 108.867 604.755 113.8ZM634.755 116.4C637.155 114.667 640.088 113.667 643.555 113.4C647.155 113 650.221 113.6 652.755 115.2C655.288 116.8 657.021 119.333 657.955 122.8C659.021 126.133 659.221 129.267 658.555 132.2C658.288 129.267 657.288 126.733 655.555 124.6C653.955 122.333 652.155 120.533 650.155 119.2C648.155 117.867 645.821 116.867 643.155 116.2C640.488 115.533 637.688 115.6 634.755 116.4ZM618.955 141C616.955 138.867 615.555 136.133 614.755 132.8C614.088 129.333 614.421 126.333 615.755 123.8C617.088 121.267 619.355 119.333 622.555 118C625.755 116.533 628.755 116 631.555 116.4C628.755 117.067 626.421 118.333 624.555 120.2C622.688 121.933 621.221 123.867 620.155 126C619.088 128 618.355 130.333 617.955 133C617.555 135.667 617.888 138.333 618.955 141ZM658.555 141C659.221 143.667 659.088 146.667 658.155 150C657.221 153.2 655.621 155.6 653.355 157.2C650.955 158.667 648.088 159.267 644.755 159C641.421 158.6 638.621 157.6 636.355 156C639.021 156.8 641.555 156.867 643.955 156.2C646.488 155.4 648.688 154.4 650.555 153.2C652.421 151.867 654.155 150.2 655.755 148.2C657.355 146.2 658.288 143.8 658.555 141ZM633.155 156C631.555 156.933 629.488 157.533 626.955 157.8C624.421 157.933 622.421 157.4 620.955 156.2C619.488 155 618.621 153.133 618.355 150.6C618.088 148.067 618.288 145.933 618.955 144.2C618.955 146.067 619.488 147.667 620.555 149C621.755 150.333 622.955 151.467 624.155 152.4C625.221 153.467 626.488 154.467 627.955 155.4C629.555 156.2 631.288 156.4 633.155 156ZM671.955 161C671.555 165 669.888 168.6 666.955 171.8C664.021 175 660.555 177.067 656.555 178C652.688 179.067 648.688 179 644.555 177.8C640.421 176.6 637.155 174.333 634.755 171C638.088 173.267 641.688 174.867 645.555 175.8C649.421 176.867 652.955 177 656.155 176.2C659.221 175.267 662.155 173.4 664.955 170.6C667.888 167.8 670.221 164.6 671.955 161ZM667.059 113.8C667.593 108.333 669.859 103.6 673.859 99.6C677.993 95.6 682.726 92.9333 688.059 91.6C693.259 90.2667 698.593 90.4667 704.059 92.2C709.659 93.8 713.926 96.8667 716.859 101.4C712.459 98.2 707.659 95.8667 702.459 94.4C697.393 92.8 692.726 92.5333 688.459 93.6C684.326 94.6667 680.326 97.0667 676.459 100.8C672.593 104.533 669.459 108.867 667.059 113.8ZM697.059 116.4C699.459 114.667 702.393 113.667 705.859 113.4C709.459 113 712.526 113.6 715.059 115.2C717.593 116.8 719.326 119.333 720.259 122.8C721.326 126.133 721.526 129.267 720.859 132.2C720.593 129.267 719.593 126.733 717.859 124.6C716.259 122.333 714.459 120.533 712.459 119.2C710.459 117.867 708.126 116.867 705.459 116.2C702.793 115.533 699.993 115.6 697.059 116.4ZM681.259 141C679.259 138.867 677.859 136.133 677.059 132.8C676.393 129.333 676.726 126.333 678.059 123.8C679.393 121.267 681.659 119.333 684.859 118C688.059 116.533 691.059 116 693.859 116.4C691.059 117.067 688.726 118.333 686.859 120.2C684.993 121.933 683.526 123.867 682.459 126C681.393 128 680.659 130.333 680.259 133C679.859 135.667 680.193 138.333 681.259 141ZM720.859 141C721.526 143.667 721.393 146.667 720.459 150C719.526 153.2 717.926 155.6 715.659 157.2C713.259 158.667 710.393 159.267 707.059 159C703.726 158.6 700.926 157.6 698.659 156C701.326 156.8 703.859 156.867 706.259 156.2C708.793 155.4 710.993 154.4 712.859 153.2C714.726 151.867 716.459 150.2 718.059 148.2C719.659 146.2 720.593 143.8 720.859 141ZM695.459 156C693.859 156.933 691.793 157.533 689.259 157.8C686.726 157.933 684.726 157.4 683.259 156.2C681.793 155 680.926 153.133 680.659 150.6C680.393 148.067 680.593 145.933 681.259 144.2C681.259 146.067 681.793 147.667 682.859 149C684.059 150.333 685.259 151.467 686.459 152.4C687.526 153.467 688.793 154.467 690.259 155.4C691.859 156.2 693.593 156.4 695.459 156ZM734.259 161C733.859 165 732.193 168.6 729.259 171.8C726.326 175 722.859 177.067 718.859 178C714.993 179.067 710.993 179 706.859 177.8C702.726 176.6 699.459 174.333 697.059 171C700.393 173.267 703.993 174.867 707.859 175.8C711.726 176.867 715.259 177 718.459 176.2C721.526 175.267 724.459 173.4 727.259 170.6C730.193 167.8 732.526 164.6 734.259 161Z" fill="#835DFF"/>
</svg>
