<svg width="83" height="94" viewBox="0 0 83 94" fill="none" xmlns="http://www.w3.org/2000/svg">
<g filter="url(#filter0_d_263_1107)">
<path fill-rule="evenodd" clip-rule="evenodd" d="M19.9309 11.002C15.5508 11.002 12 14.5527 12 18.9329V57.3674C12 58.07 12.0914 58.7513 12.2629 59.4C12.3017 61.0992 13.0489 62.8075 14.6669 64.0455L39.7123 83.2072C41.9002 84.8811 44.9385 84.8811 47.1264 83.2072L72.1718 64.0455C73.7916 62.8062 74.5386 61.0955 74.5759 59.3945C74.7465 58.7475 74.8373 58.068 74.8373 57.3674V18.9329C74.8373 14.5528 71.2866 11.002 66.9064 11.002H19.9309Z" fill="url(#paint0_linear_263_1107)"/>
</g>
<defs>
<filter id="filter0_d_263_1107" x="0.170393" y="0.126346" width="82.6806" height="93.3037" filterUnits="userSpaceOnUse" color-interpolation-filters="sRGB">
<feFlood flood-opacity="0" result="BackgroundImageFix"/>
<feColorMatrix in="SourceAlpha" type="matrix" values="0 0 0 0 0 0 0 0 0 0 0 0 0 0 0 0 0 0 127 0" result="hardAlpha"/>
<feOffset dx="-1.908" dy="-0.954001"/>
<feGaussianBlur stdDeviation="4.9608"/>
<feComposite in2="hardAlpha" operator="out"/>
<feColorMatrix type="matrix" values="0 0 0 0 0.823568 0 0 0 0 0.823568 0 0 0 0 0.823568 0 0 0 0.3 0"/>
<feBlend mode="normal" in2="BackgroundImageFix" result="effect1_dropShadow_263_1107"/>
<feBlend mode="normal" in="SourceGraphic" in2="effect1_dropShadow_263_1107" result="shape"/>
</filter>
<linearGradient id="paint0_linear_263_1107" x1="69.2518" y1="84.4626" x2="-2.07998" y2="39.5809" gradientUnits="userSpaceOnUse">
<stop stop-color="#C57031"/>
<stop offset="1" stop-color="white"/>
</linearGradient>
</defs>
</svg>
